<svg xmlns="http://www.w3.org/2000/svg" width="10.896" height="11.068" viewBox="0 0 10.896 11.068">
  <path id="Duplicate" d="M226.9,52.647l.118.012.12.039.093.041.093.079.079.093.039.093.026.118.014.118v7.5l-.014.132-.026.1-.039.106-.079.079-.093.079-.093.053-.12.039h-6.075l-.106-.039-.1-.053-.093-.079-.067-.079-.053-.106-.026-.1-.014-.132v-1.77h-3.3l-.132-.014-.093-.039-.118-.053-.08-.067-.079-.091-.053-.093-.026-.12-.014-.118V54.1l.027-.132.039-.132.065-.159.053-.132.067-.132.079-.1.079-.093,2.483-2.523.093-.079.118-.08.118-.065.132-.067.146-.065.132-.039.146-.027H223l.12.014.118.026.093.067.093.079.079.079.053.106.012.106.014.118V52.9l.211-.118.2-.067.2-.053.185-.012Zm-3.315,1.307L221.775,55.8h1.809ZM219.7,51.591l-1.809,1.835H219.7Zm1.189,4,1.928-1.955V51.061h-2.338v2.576l-.012.12-.041.1-.039.106-.079.093-.093.065-.093.053-.118.039-.106.014h-2.535v3.949h3.116v-1.7l.027-.132.039-.146.053-.144.052-.146.08-.118.079-.12Zm5.824,4.966V53.426h-2.338V56l-.014.118-.039.118-.052.106-.067.079-.093.079-.1.053-.106.027-.118.012h-2.523v3.963Z" transform="translate(-216.584 -50.269)" fill="#ffffff" fill-rule="evenodd"/>
</svg>
