<svg id="MinusExpanders_Light" xmlns="http://www.w3.org/2000/svg" width="13.269" height="13.476" viewBox="0 0 13.269 13.476">
  <path id="contract" d="M220.5,92.011V90.865l-.019-.095-.037-.112-.056-.093-.075-.075-.075-.075-.093-.056-.114-.037H212.1l-.112.037-.075.056-.095.075-.075.075-.056.093-.037.112v1.352l.037.093.056.095.075.095.095.056.075.056.112.037h7.937l.114-.037.093-.056.075-.056.075-.095.056-.095.037-.093Zm2.2-4.786v8.69l-.037.244-.056.224-.075.244-.114.207-.13.207-.132.205-.188.188-.17.17-.205.168-.207.132-.207.095-.244.074-.224.075-.244.039h-8.8l-.246-.039-.224-.075L210.952,98l-.207-.095-.205-.132-.207-.168-.17-.17-.168-.188-.149-.205-.132-.207-.095-.207-.093-.244-.056-.224-.039-.244V86.962l.039-.244.056-.224.093-.226.095-.224.132-.207.149-.188.168-.207.17-.168.207-.168.205-.114.207-.112.244-.075.224-.074.246-.019h8.8l.244.019.224.074.244.075.207.112.207.114.205.168.17.168.188.207.132.188.13.207.114.224.075.226.056.224.037.244Z" transform="translate(-209.431 -84.71)" fill="#e0e0e0" fill-rule="evenodd"/>
</svg>
