<svg id="PlusExpanders_Light" xmlns="http://www.w3.org/2000/svg" width="13.267" height="13.476" viewBox="0 0 13.267 13.476">
  <path id="expand" d="M677.318,60.074V58.928l-.017-.095-.039-.112-.056-.093-.075-.075-.073-.075-.095-.056-.112-.037H674V55.568l-.017-.112-.039-.112-.056-.075-.056-.093-.095-.075-.093-.056-.112-.019h-1.3l-.112.019-.093.056-.095.075-.056.093-.056.075-.039.112v2.929h-2.871l-.112.037-.095.056-.073.075-.075.075-.056.093-.039.112v1.352l.039.093.056.095.075.095.073.056.095.056.112.037h2.871v2.929l.039.112.056.075.056.093.095.075.093.056.112.037h1.3l.112-.037.093-.056.095-.075.056-.093.056-.075.039-.112.017-.114V60.617h2.853l.112-.037.095-.056.073-.056.075-.095.056-.095.039-.093Zm2.2-4.786v8.69l-.037.244-.056.224-.095.244-.093.207-.132.207-.132.205-.188.188-.168.17-.207.168-.207.132-.205.095-.244.074-.226.075-.244.039h-8.8l-.244-.039-.224-.075-.246-.074-.205-.095-.207-.132-.207-.168-.168-.17-.188-.188-.131-.205-.132-.207-.093-.207-.095-.244-.056-.224-.037-.244V55.025l.037-.244.056-.224.095-.226.093-.224.132-.207.131-.188.188-.207.168-.168.207-.168.207-.114.205-.112.246-.075.224-.074.244-.019h8.8l.244.019.226.074.244.075.205.112.207.114.207.168.168.168.188.207.132.188.132.207.093.224.095.226.056.224.037.244Z" transform="translate(-666.247 -52.773)" fill="#e0e0e0" fill-rule="evenodd"/>
</svg>
