<?xml version="1.0" encoding="UTF-8" standalone="no"?>
<svg
   xmlns:dc="http://purl.org/dc/elements/1.1/"
   xmlns:cc="http://creativecommons.org/ns#"
   xmlns:rdf="http://www.w3.org/1999/02/22-rdf-syntax-ns#"
   xmlns:svg="http://www.w3.org/2000/svg"
   xmlns="http://www.w3.org/2000/svg"
   xmlns:sodipodi="http://sodipodi.sourceforge.net/DTD/sodipodi-0.dtd"
   xmlns:inkscape="http://www.inkscape.org/namespaces/inkscape"
   height="24"
   viewBox="0 0 24 24"
   width="24"
   version="1.1"
   id="svg6"
   sodipodi:docname="search-24px (1).svg"
   inkscape:version="1.0.2 (e86c870879, 2021-01-15, custom)">
  <metadata
     id="metadata12">
    <rdf:RDF>
      <cc:Work
         rdf:about="">
        <dc:format>image/svg+xml</dc:format>
        <dc:type
           rdf:resource="http://purl.org/dc/dcmitype/StillImage" />
        <dc:title></dc:title>
      </cc:Work>
    </rdf:RDF>
  </metadata>
  <defs
     id="defs10" />
  <sodipodi:namedview
     pagecolor="#ffffff"
     bordercolor="#666666"
     borderopacity="1"
     objecttolerance="10"
     gridtolerance="10"
     guidetolerance="10"
     inkscape:pageopacity="0"
     inkscape:pageshadow="2"
     inkscape:window-width="2234"
     inkscape:window-height="1448"
     id="namedview8"
     showgrid="false"
     inkscape:zoom="42"
     inkscape:cx="10.694811"
     inkscape:cy="13.553239"
     inkscape:window-x="1481"
     inkscape:window-y="467"
     inkscape:window-maximized="0"
     inkscape:current-layer="svg6" />
  <path
     id="path4"
     d="M 9.5 3 C 5.91 3 3 5.91 3 9.5 C 3 13.09 5.91 16 9.5 16 C 10.914259 16 12.21386 15.524955 13.285156 14.75 L 14 15.5 L 19 20.490234 L 20.490234 19 L 15.5 14 L 14.763672 13.263672 C 15.529574 12.196161 16 10.905186 16 9.5 C 16 5.91 13.09 3 9.5 3 z M 9.5 5 C 11.99 5 14 7.01 14 9.5 C 14 11.99 11.99 14 9.5 14 C 7.01 14 5 11.99 5 9.5 C 5 7.01 7.01 5 9.5 5 z "
     style="fill:#ffffff;fill-opacity:1" />
</svg>
