<?xml version="1.0" encoding="UTF-8" standalone="no"?>
<svg
   xmlns:dc="http://purl.org/dc/elements/1.1/"
   xmlns:cc="http://creativecommons.org/ns#"
   xmlns:rdf="http://www.w3.org/1999/02/22-rdf-syntax-ns#"
   xmlns:svg="http://www.w3.org/2000/svg"
   xmlns="http://www.w3.org/2000/svg"
   xmlns:sodipodi="http://sodipodi.sourceforge.net/DTD/sodipodi-0.dtd"
   xmlns:inkscape="http://www.inkscape.org/namespaces/inkscape"
   width="120.65"
   height="120.756"
   viewBox="0 0 120.65 120.756"
   version="1.1"
   id="svg33"
   sodipodi:docname="NodeGraph.svg"
   inkscape:version="1.0.2 (e86c870879, 2021-01-15, custom)">
  <metadata
     id="metadata37">
    <rdf:RDF>
      <cc:Work
         rdf:about="">
        <dc:format>image/svg+xml</dc:format>
        <dc:type
           rdf:resource="http://purl.org/dc/dcmitype/StillImage" />
        <dc:title></dc:title>
      </cc:Work>
    </rdf:RDF>
  </metadata>
  <sodipodi:namedview
     pagecolor="#ffffff"
     bordercolor="#666666"
     borderopacity="1"
     objecttolerance="10"
     gridtolerance="10"
     guidetolerance="10"
     inkscape:pageopacity="0"
     inkscape:pageshadow="2"
     inkscape:window-width="2099"
     inkscape:window-height="1691"
     id="namedview35"
     showgrid="false"
     fit-margin-top="5"
     fit-margin-left="0"
     fit-margin-right="0"
     fit-margin-bottom="5"
     inkscape:zoom="7.875"
     inkscape:cx="60.5"
     inkscape:cy="57.5"
     inkscape:window-x="1145"
     inkscape:window-y="307"
     inkscape:window-maximized="0"
     inkscape:current-layer="svg33" />
  <defs
     id="defs13">
    <filter
       id="Path_3441"
       x="3.5"
       y="11.5"
       width="120.65"
       height="110.756"
       filterUnits="userSpaceOnUse">
      <feOffset
         dy="3"
         input="SourceAlpha"
         id="feOffset2" />
      <feGaussianBlur
         stdDeviation="1.5"
         result="blur"
         id="feGaussianBlur4" />
      <feFlood
         flood-opacity="0.161"
         id="feFlood6" />
      <feComposite
         operator="in"
         in2="blur"
         id="feComposite8"
         result="result1" />
      <feComposite
         in="SourceGraphic"
         in2="result1"
         id="feComposite10" />
    </filter>
  </defs>
  <g
     id="NodeGraph"
     transform="translate(-81.5,-71.5)">
    <g
       transform="translate(78,65)"
       filter="url(#Path_3441)"
       id="g21">
      <g
         id="Path_3441-2"
         data-name="Path 3441"
         transform="translate(8,13)"
         fill="#4d4d4d">
        <path
           d="M 108.02502,100.25633 H 14.697666 L 1.4999968,80.200241 V 7.7088122 c 0,-1.8163075 0.3350154,-3.570446 0.9191538,-4.8126461 C 2.9008429,1.8718123 3.4041815,1.499997 3.6249969,1.499997 H 97.280403 l 12.869617,14.574384 v 77.973142 c 0,1.816308 -0.33501,3.570443 -0.91915,4.812645 -0.48169,1.024353 -0.98504,1.396162 -1.20585,1.396162 z"
           stroke="none"
           id="path16" />
        <path
           d="M 4.0769806,3 C 3.6864471,3.5393372 2.9999924,5.1312637 2.9999924,7.7088165 V 79.750992 l 12.5062256,19.00534 h 92.066822 c 0.39054,-0.539337 1.07699,-2.131263 1.07699,-4.708816 V 16.641838 L 96.603859,3 H 4.0769806 M 3.6249924,0 H 97.956963 l 13.693067,15.506882 v 78.540634 c 0,4.257454 -1.62298,7.708814 -3.625,7.708814 H 13.889076 L -7.6293945e-6,80.649498 V 7.7088165 C -7.6293945e-6,3.4513474 1.622963,0 3.6249924,0 Z"
           stroke="none"
           fill="#53a555"
           id="path18" />
      </g>
    </g>
    <path
       id="Path_3446"
       data-name="Path 3446"
       d="m 3.544,0 h 92.929 l 12.68,14.665 V 25 H 0 V 5 C 0,2.239 1.587,0 3.544,0 Z"
       transform="translate(86,78)"
       fill="#53a555" />
    <rect
       id="Rectangle_26"
       data-name="Rectangle 26"
       width="21"
       height="21"
       transform="translate(171,142)"
       fill="#b8d55a"
       x="0"
       y="0" />
    <rect
       id="Rectangle_27"
       data-name="Rectangle 27"
       width="21"
       height="21"
       transform="translate(93,107)"
       fill="#b8d55a"
       x="0"
       y="0" />
    <rect
       id="Rectangle_28"
       data-name="Rectangle 28"
       width="21"
       height="21"
       transform="translate(131,129)"
       fill="#d55ab4"
       x="0"
       y="0" />
    <path
       id="Path_3450"
       data-name="Path 3450"
       d="m 598.964,126.421 c 7.228,4.086 8.916,25.237 17,27.291"
       transform="translate(-484.964,-8.921)"
       fill="none"
       stroke="#83caff"
       stroke-linecap="round"
       stroke-width="3" />
    <path
       id="Path_3451"
       data-name="Path 3451"
       d="m 598.964,126.421 c 8.079,1.56 9.965,9.636 19,10.42"
       transform="translate(-446.964,12.008)"
       fill="none"
       stroke="#83caff"
       stroke-linecap="round"
       stroke-width="3" />
    <rect
       id="Rectangle_29"
       data-name="Rectangle 29"
       width="13"
       height="11"
       transform="translate(97,113)"
       fill="#424242"
       x="0"
       y="0" />
    <rect
       id="Rectangle_30"
       data-name="Rectangle 30"
       width="13"
       height="11"
       transform="translate(175,149)"
       fill="#424242"
       x="0"
       y="0" />
    <rect
       id="Rectangle_31"
       data-name="Rectangle 31"
       width="13"
       height="11"
       transform="translate(135,136)"
       fill="#424242"
       x="0"
       y="0" />
  </g>
</svg>
