<svg xmlns="http://www.w3.org/2000/svg" width="33" height="33" viewBox="0 0 33 33">
  <g id="Add_Key" transform="translate(-11658.241 1027.716)">
    <g id="select" transform="translate(64.241 140.284)">
      <rect id="Rectangle_678" data-name="Rectangle 678" width="33" height="33" transform="translate(11594 -1168)" fill="none"/>
    </g>
    <path id="Union_43" data-name="Union 43" d="M-6958.068-592.456l-.126-.014-.114-.028-.1-.072-.114-.086-.072-.084-.056-.114-.028-.112-.014-.128v-2.746h-2.719l-.114-.012-.126-.044-.1-.056-.1-.086-.084-.086-.042-.112-.042-.114-.014-.142v-1.259l.014-.128.042-.112.042-.114.084-.1.1-.07.1-.072.126-.028.114-.014h2.719v-2.76l.014-.126.028-.114.056-.114.072-.1.114-.072.1-.056.114-.044.126-.012h1.247l.142.012.1.044.114.056.086.072.084.1.072.114.028.114.014.126v2.76h2.7l.128.014.114.028.112.072.1.07.072.1.055.114.043.112.014.128v1.259l-.014.142-.043.114-.055.112-.072.086-.1.086-.112.056-.114.044-.128.012h-2.7v2.746l-.014.128-.028.112-.072.114-.084.084-.086.086-.114.072-.1.028-.142.014Zm-11.463-2.776-1.885-1.887a.981.981,0,0,1-.194-.275l-.024.023a1,1,0,0,1-1.415,0l-1.415-1.414a1,1,0,0,1,0-1.414l8.814-8.814.016-.016a5.942,5.942,0,0,1,1.122-6.78,5.97,5.97,0,0,1,8.434.053,5.97,5.97,0,0,1,.052,8.434,5.946,5.946,0,0,1-6.781,1.122.056.056,0,0,1-.014.016l-3.748,3.75a.975.975,0,0,1,.275.194l1.885,1.885a1,1,0,0,1,0,1.414l-.448.448a1,1,0,0,1-1.414,0l-1.885-1.885a.98.98,0,0,1-.194-.275l-1.478,1.477a.975.975,0,0,1,.275.194l1.885,1.885a1,1,0,0,1,0,1.414l-.448.45a1,1,0,0,1-.708.292A1,1,0,0,1-6969.532-595.233Zm7.376-18.219a2.652,2.652,0,0,0,.022,3.748,2.653,2.653,0,0,0,3.748.023,2.651,2.651,0,0,0-.023-3.746,2.673,2.673,0,0,0-1.9-.788A2.608,2.608,0,0,0-6962.155-613.451Z" transform="translate(18638.543 -406.224)" fill="#6ba871"/>
  </g>
</svg>
