<svg width="80" height="80" viewBox="0 0 80 80" fill="none" xmlns="http://www.w3.org/2000/svg">
<path d="M68.1534 30.3361H10.5145V24.3367H68.1534V30.3361Z" fill="#FFF25F"/>
<path d="M46.6066 33.6088C43.0919 37.1236 37.3934 37.1236 33.8786 33.6088C30.3639 30.0941 30.3639 24.3956 33.8786 20.8809C37.3934 17.3662 43.0919 17.3662 46.6066 20.8809C50.1213 24.3956 50.1213 30.0941 46.6066 33.6088Z" fill="#6DFF60"/>
<path d="M68.9999 18.517L77.4852 27.0022L68.9999 35.4875L60.5147 27.0022L68.9999 18.517Z" fill="#FFF25F"/>
<path d="M77.4852 27.0022L68.9999 35.4875L60.5147 27.0022L68.9999 18.517L77.4852 27.0022ZM61.9289 27.0022L68.9999 34.0733L76.071 27.0022L68.9999 19.9312L61.9289 27.0022Z" fill="#FFF25F"/>
<path d="M10.9999 18.517L19.4852 27.0022L10.9999 35.4875L2.51465 27.0022L10.9999 18.517Z" fill="#FFF25F"/>
<path d="M19.4852 27.0022L10.9999 35.4875L2.51465 27.0022L10.9999 18.517L19.4852 27.0022ZM3.92886 27.0022L10.9999 34.0733L18.071 27.0022L10.9999 19.9312L3.92886 27.0022Z" fill="#FFF25F"/>
<path d="M39.7988 29.517C52.6681 29.517 59.6689 37.9631 63.2929 45.7513C65.1067 49.6492 66.152 53.5117 66.746 56.3763C67.0444 57.8154 67.2325 59.0199 67.3466 59.8734C67.4037 60.3004 67.4428 60.6409 67.4677 60.8802C67.4802 61 67.4889 61.0949 67.495 61.1625C67.4981 61.1962 67.5002 61.2234 67.5019 61.2435C67.5027 61.2533 67.5033 61.2615 67.5038 61.2679C67.5041 61.2712 67.5046 61.2743 67.5048 61.2767C67.5049 61.2777 67.5048 61.2789 67.5048 61.2796C67.5049 61.281 67.5054 61.2826 64.5146 61.517C61.6792 61.7392 61.5319 61.7518 61.5243 61.7533V61.7552C61.5243 61.7548 61.5237 61.7523 61.5234 61.7484C61.5227 61.7406 61.5214 61.7262 61.5195 61.7054C61.5156 61.6633 61.5096 61.5949 61.4999 61.5023C61.4806 61.3169 61.4482 61.0341 61.3993 60.6683C61.3015 59.9359 61.1363 58.8747 60.871 57.5951C60.3375 55.0223 59.4122 51.6345 57.8525 48.2826C54.7293 41.5709 49.3724 35.517 39.7988 35.517C29.5969 35.517 24.1221 41.6463 21.0341 48.2826C19.4811 51.62 18.5928 54.9941 18.0947 57.558C17.8469 58.833 17.6984 59.8905 17.6132 60.6195C17.5707 60.9831 17.544 61.2638 17.5282 61.4476C17.5204 61.5395 17.5156 61.6073 17.5126 61.6488C17.5112 61.6691 17.5102 61.6832 17.5097 61.6908L17.5087 61.6937C17.4978 61.6921 17.3218 61.682 14.5146 61.517C11.5357 61.3419 11.5195 61.3396 11.5195 61.3382C11.5195 61.3377 11.5204 61.3364 11.5204 61.3353C11.5206 61.3329 11.5202 61.3297 11.5204 61.3265C11.5208 61.3199 11.5217 61.3112 11.5224 61.3011C11.5237 61.2808 11.5258 61.253 11.5282 61.2191C11.5332 61.1509 11.5404 61.0553 11.5507 60.9349C11.5714 60.694 11.6041 60.3511 11.6542 59.9222C11.7544 59.0653 11.9236 57.8569 12.204 56.4134C12.7624 53.5398 13.7741 49.6639 15.5947 45.7513C19.2538 37.8877 26.4211 29.517 39.7988 29.517Z" fill="#6DFF60"/>
</svg>
