<svg width="80" height="80" viewBox="0 0 80 80" fill="none" xmlns="http://www.w3.org/2000/svg">
<path d="M73.3626 45.3416H6.6377L6.63839 39.3415H73.3619L73.3626 45.3416Z" fill="#FFF25F"/>
<path d="M47.2733 48.6139C43.7586 52.1286 38.0601 52.1286 34.5454 48.6139C31.0307 45.0991 31.0307 39.4007 34.5454 35.8859C38.0601 32.3712 43.7586 32.3712 47.2733 35.8859C50.788 39.4007 50.788 45.0991 47.2733 48.6139Z" fill="#6DFF60"/>
<path d="M64.1829 16.4663C64.191 16.4677 64.3425 16.4717 67.182 16.522C70.0385 16.5725 70.1745 16.5769 70.181 16.5786V16.6177C70.1805 16.6382 70.1792 16.6652 70.1781 16.6978C70.1758 16.7629 70.1721 16.8522 70.1663 16.9634C70.1547 17.1856 70.1345 17.4971 70.099 17.8853C70.0279 18.661 69.8953 19.7488 69.6488 21.0454C69.1581 23.6257 68.2014 27.1065 66.3216 30.6196C64.4349 34.1457 61.595 37.7444 57.3421 40.4536C53.0749 43.1719 47.5538 44.8872 40.4876 44.8872C28.366 44.8872 22.7828 49.7887 20.055 54.2651C18.633 56.5988 17.9068 58.9558 17.5404 60.7437C17.3582 61.6324 17.2682 62.3648 17.224 62.8599C17.2019 63.1067 17.1909 63.2932 17.1859 63.4087C17.1834 63.4663 17.1824 63.5061 17.182 63.5269V63.5337L11.182 63.5103V63.4692C11.1822 63.4491 11.1832 63.4236 11.1839 63.3931C11.1853 63.332 11.1874 63.2504 11.1917 63.1499C11.2004 62.9486 11.2166 62.6693 11.2474 62.3247C11.3089 61.6367 11.429 60.6787 11.6624 59.5396C12.1274 57.2709 13.0573 54.218 14.931 51.1431C18.7947 44.8023 26.3646 38.8872 40.4876 38.8872C46.5438 38.8872 50.9201 37.4305 54.1185 35.3931C57.3312 33.3464 59.5253 30.6046 61.0316 27.7896C62.5446 24.9617 63.3405 22.1009 63.7542 19.9253C63.9598 18.8441 64.0683 17.9498 64.1243 17.3384C64.1523 17.0335 64.1664 16.8002 64.1741 16.6509C64.178 16.5764 64.1809 16.5225 64.182 16.4917L64.1829 16.4663Z" fill="#6DFF60"/>
</svg>
