<svg width="80" height="80" viewBox="0 0 80 80" fill="none" xmlns="http://www.w3.org/2000/svg">
<path d="M59.9999 24C59.9999 29.5228 55.5228 34 49.9999 34H42.9999V30H49.9999C53.3136 30 55.9999 27.3137 55.9999 24C55.9999 20.6863 53.3136 18 49.9999 18H42.9999V14H49.9999C55.4408 14.1342 59.9999 18.4482 59.9999 24Z" fill="#D9D9D9"/>
<path d="M36.9999 18H29.9999C26.6862 18 23.9999 20.6863 23.9999 24C23.9999 27.3137 26.6862 30 29.9999 30V34C24.4771 34 19.9999 29.5228 19.9999 24C19.9999 18.4482 24.5591 14.1342 29.9999 14H36.9999V18Z" fill="#D9D9D9"/>
<path d="M36.9999 34H29.9999V30H36.9999V34Z" fill="#D9D9D9"/>
<path d="M27.9999 24C27.9999 22.8954 28.8954 22 29.9999 22H49.9999C51.1045 22 51.9999 22.8954 51.9999 24C51.9999 25.1046 51.1045 26 49.9999 26H29.9999C28.8954 26 27.9999 25.1046 27.9999 24Z" fill="#D9D9D9"/>
<path d="M68.1534 60.0912H10.5145V54.0918H68.1534V60.0912Z" fill="#FFF25F"/>
<path d="M46.6066 63.364C43.0919 66.8787 37.3934 66.8787 33.8786 63.364C30.3639 59.8492 30.3639 54.1508 33.8786 50.636C37.3934 47.1213 43.0919 47.1213 46.6066 50.636C50.1213 54.1508 50.1213 59.8492 46.6066 63.364Z" fill="#6DFF60"/>
<path d="M68.9999 48.2721L77.4852 56.7574L68.9999 65.2426L60.5147 56.7574L68.9999 48.2721Z" fill="#FFF25F"/>
<path d="M77.4852 56.7574L68.9999 65.2426L60.5147 56.7574L68.9999 48.2721L77.4852 56.7574ZM61.9289 56.7574L68.9999 63.8284L76.071 56.7574L68.9999 49.6863L61.9289 56.7574Z" fill="#FFF25F"/>
<path d="M10.9999 48.2721L19.4852 56.7574L10.9999 65.2426L2.51465 56.7574L10.9999 48.2721Z" fill="#FFF25F"/>
<path d="M19.4852 56.7574L10.9999 65.2426L2.51465 56.7574L10.9999 48.2721L19.4852 56.7574ZM3.92886 56.7574L10.9999 63.8284L18.071 56.7574L10.9999 49.6863L3.92886 56.7574Z" fill="#FFF25F"/>
</svg>
