<svg width="80" height="80" viewBox="0 0 80 80" fill="none" xmlns="http://www.w3.org/2000/svg">
<path d="M35.1138 58.386C35.1138 63.3565 31.0843 67.386 26.1138 67.386C21.1432 67.386 17.1138 63.3565 17.1138 58.386C17.1138 53.4154 21.1432 49.386 26.1138 49.386C31.0843 49.386 35.1138 53.4154 35.1138 58.386Z" fill="#6DFF60"/>
<path d="M62.886 21.614C62.886 26.5846 58.8565 30.614 53.886 30.614C48.9154 30.614 44.886 26.5846 44.886 21.614C44.886 16.6435 48.9154 12.614 53.886 12.614C58.8565 12.614 62.886 16.6435 62.886 21.614Z" fill="#6DFF60"/>
<path d="M56.8858 21.886V61.386H26.8858V55.386H50.8858V21.886H56.8858Z" fill="#6DFF60"/>
</svg>
