<svg width="80" height="80" viewBox="0 0 80 80" fill="none" xmlns="http://www.w3.org/2000/svg">
<path d="M26.784 9.35204L19.4675 52.3173L13.5527 51.3093L20.869 8.34548L26.784 9.35204Z" fill="#FFF25F"/>
<path d="M22.9506 58.1138C19.4359 61.6285 13.7374 61.6285 10.2227 58.1138C6.70799 54.5991 6.70799 48.9006 10.2227 45.3859C13.7374 41.8712 19.4359 41.8712 22.9506 45.3859C26.4653 48.9006 26.4653 54.5991 22.9506 58.1138Z" fill="#6DFF60"/>
<path d="M15.9143 7.95556L25.7036 1.01514L32.644 10.8044L22.8547 17.7449L15.9143 7.95556Z" fill="#FFF25F"/>
<path d="M25.7036 1.01514L32.644 10.8044L22.8547 17.7449L15.9143 7.95556L25.7036 1.01514ZM23.0921 16.3507L31.2499 10.567L25.4662 2.40928L17.3085 8.19296L23.0921 16.3507Z" fill="#FFF25F"/>
<path d="M59.1757 72.4726L59.9782 23.9733L65.9767 24.0726L65.1742 72.5718L59.1757 72.4726Z" fill="#FFF25F"/>
<path d="M70.8281 70.6412L62.2036 78.9849L53.8599 70.3604L62.4844 62.0167L70.8281 70.6412Z" fill="#FFF25F"/>
<path d="M62.2036 78.9849L53.8599 70.3604L62.4844 62.0167L70.8281 70.6412L62.2036 78.9849ZM62.461 63.4307L55.2739 70.3838L62.227 77.5709L69.4141 70.6178L62.461 63.4307Z" fill="#FFF25F"/>
<path d="M22.3051 30.2536C24.9676 26.6069 28.1967 24.5982 31.934 25.0759C35.2828 25.504 38.0893 27.869 40.2943 30.2673C42.5827 32.7562 44.7581 35.8931 46.7221 38.7546C48.7559 41.7178 50.5396 44.3472 52.2035 46.2097C53.0296 47.1343 53.6995 47.7213 54.2182 48.0437C54.4805 48.2066 54.6395 48.2621 54.7143 48.281C54.7923 48.2328 54.9547 48.1076 55.1938 47.8073C55.6733 47.2049 56.2793 46.1178 56.9369 44.2868C58.2495 40.632 59.5302 34.705 60.7104 25.6364L66.6605 26.4099C65.4659 35.5894 64.1212 42.0361 62.5844 46.3151C61.8174 48.4508 60.9423 50.2204 59.8881 51.5446C58.8131 52.8949 57.401 53.9583 55.6068 54.2272C53.8409 54.4919 52.2735 53.8996 51.0502 53.1394C49.8359 52.3846 48.7259 51.3227 47.7289 50.2067C45.7466 47.9879 43.7095 44.9679 41.7748 42.1491C39.7704 39.2287 37.829 36.4505 35.8773 34.3278C33.8423 32.1144 32.2853 31.1703 31.1732 31.028C30.4495 30.9355 29.1192 31.0958 27.1508 33.7917C25.1428 36.542 22.9082 41.404 20.5639 49.363L14.808 47.6677C17.2136 39.5007 19.6823 33.846 22.3051 30.2536Z" fill="#6DFF60"/>
<path d="M69.7772 32.115C66.2624 35.6297 60.564 35.6297 57.0492 32.115C53.5345 28.6003 53.5345 22.9018 57.0492 19.3871C60.564 15.8724 66.2624 15.8724 69.7772 19.3871C73.2919 22.9018 73.2919 28.6003 69.7772 32.115Z" fill="#6DFF60"/>
</svg>
