<svg width="80" height="80" viewBox="0 0 80 80" fill="none" xmlns="http://www.w3.org/2000/svg">
<path d="M61.4326 63.2051L57.5674 67.7949L40.5 53.4219L23.4326 67.7949L19.5674 63.2051L40.5 45.5781L61.4326 63.2051Z" fill="#FFF25F"/>
<path d="M14.5 71.5L14.5 59.5H26.5L26.5 71.5H14.5Z" fill="#FFF25F"/>
<path d="M53.5 59.5H65.5V71.5H53.5V59.5Z" fill="#FFF25F"/>
<path d="M60.5 24.5123C60.5 30.0352 56.0228 34.5123 50.5 34.5123H43.5L44.5 30.5123H50.5C53.8137 30.5123 56.5 27.826 56.5 24.5123C56.5 21.1986 53.8137 18.5123 50.5 18.5123H47.5L48.5 14.5123H50.5C55.9409 14.6465 60.5 18.9605 60.5 24.5123Z" fill="#D9D9D9"/>
<path d="M36 18.5123H30.5C27.1863 18.5123 24.5 21.1986 24.5 24.5123C24.5 27.826 27.1863 30.5123 30.5 30.5123V34.5123C24.9772 34.5123 20.5 30.0352 20.5 24.5123C20.5 18.9605 25.0591 14.6465 30.5 14.5123H37.5L36 18.5123Z" fill="#D9D9D9"/>
<path d="M32 34.5123H30.5V30.5123H33.5L32 34.5123Z" fill="#D9D9D9"/>
<path d="M42.3987 8.5L46.2818 9.46006L38.6013 40.5247L34.7182 39.5646L42.3987 8.5Z" fill="#D9D9D9"/>
<path d="M48.5 51.5C48.5 55.9183 44.9183 59.5 40.5 59.5C36.0817 59.5 32.5 55.9183 32.5 51.5C32.5 47.0817 36.0817 43.5 40.5 43.5C44.9183 43.5 48.5 47.0817 48.5 51.5Z" fill="#6DFF60"/>
</svg>
