<svg width="80" height="80" viewBox="0 0 80 80" fill="none" xmlns="http://www.w3.org/2000/svg">
<path d="M19.3649 69.864C15.8502 73.3787 10.1517 73.3787 6.63702 69.864C3.1223 66.3492 3.1223 60.6508 6.63702 57.136C10.1517 53.6213 15.8502 53.6213 19.3649 57.136C22.8797 60.6508 22.8797 66.3492 19.3649 69.864Z" fill="#6DFF60"/>
<path d="M32.3629 34.864C28.8482 38.3787 23.1497 38.3787 19.635 34.864C16.1203 31.3492 16.1203 25.6508 19.635 22.136C23.1497 18.6213 28.8482 18.6213 32.3629 22.136C35.8777 25.6508 35.8777 31.3492 32.3629 34.864Z" fill="#6DFF60"/>
<path d="M59.365 46.864C55.8503 50.3787 50.1518 50.3787 46.6371 46.864C43.1224 43.3492 43.1224 37.6508 46.6371 34.136C50.1518 30.6213 55.8503 30.6213 59.365 34.136C62.8798 37.6508 62.8798 43.3492 59.365 46.864Z" fill="#6DFF60"/>
<path d="M73.3634 22.864C69.8487 26.3787 64.1502 26.3787 60.6355 22.864C57.1208 19.3492 57.1208 13.6508 60.6355 10.136C64.1502 6.62132 69.8487 6.62132 73.3634 10.136C76.8782 13.6508 76.8782 19.3492 73.3634 22.864Z" fill="#6DFF60"/>
<path d="M64.2801 16.5514C64.2858 16.5525 64.4138 16.5632 67.2713 16.7721C70.2342 16.9887 70.2635 16.9928 70.2635 16.9928V16.9957C70.2635 16.9957 70.2627 16.9994 70.2625 17.0016C70.2622 17.0065 70.2621 17.0128 70.2615 17.0201C70.2604 17.0349 70.2587 17.0552 70.2567 17.0797C70.2526 17.1287 70.2462 17.1968 70.2381 17.2828C70.222 17.4553 70.1979 17.7003 70.1619 18.0084C70.09 18.6244 69.9732 19.4962 69.7908 20.5494C69.4275 22.6476 68.797 25.5097 67.7244 28.527C65.6398 34.3913 61.565 41.7055 53.6551 44.1393C51.4409 44.8205 49.356 44.8866 47.4334 44.2789C45.5297 43.6772 44.0732 42.5057 42.9432 41.2086C41.8307 39.9316 40.955 38.4405 40.2235 37.0387C39.5355 35.7205 38.7774 34.0758 38.1981 32.9157C37.5494 31.6166 36.9589 30.5675 36.3397 29.7682C35.7283 28.9791 35.214 28.5986 34.7781 28.4264C34.102 28.1594 32.2947 27.9378 28.0955 31.1539C27.1227 31.8992 26.4291 33.4329 26.1678 36.5065C25.9034 39.6162 26.1336 42.9252 26.0779 46.9762C26.0263 50.7391 25.7068 54.9275 24.0526 58.5367C22.3048 62.3498 19.1625 65.3168 14.0408 66.6725L12.5057 60.8717C15.8836 59.9775 17.5939 58.2284 18.5985 56.0367C19.6965 53.6411 20.0289 50.5352 20.0789 46.8942C20.125 43.5412 19.9055 39.3349 20.1893 35.9977C20.4761 32.6246 21.3286 28.7789 24.4471 26.3903C29.061 22.8564 33.2244 21.3612 36.9822 22.8453C38.7632 23.5488 40.0815 24.8009 41.0828 26.0934C42.0764 27.3759 42.879 28.8587 43.5662 30.235C44.3228 31.7501 44.8445 32.9243 45.5428 34.2623C46.1975 35.5168 46.8154 36.5196 47.4666 37.2672C48.1002 37.9945 48.6777 38.3788 49.242 38.5573C49.7876 38.7297 50.6057 38.8005 51.8914 38.4049C56.9813 36.8386 60.1566 31.9028 62.0711 26.5172C62.9981 23.9096 63.5548 21.3965 63.8787 19.526C64.0399 18.5951 64.1412 17.8339 64.202 17.3131C64.2323 17.053 64.2523 16.853 64.2645 16.7233C64.2705 16.6586 64.2748 16.6114 64.2772 16.5826C64.2784 16.5683 64.2787 16.5583 64.2791 16.5533C64.2793 16.5511 64.2801 16.5494 64.2801 16.5494V16.5514Z" fill="#6DFF60"/>
</svg>
