<svg xmlns="http://www.w3.org/2000/svg" width="10.203" height="10.362" viewBox="0 0 10.203 10.362">
  <path id="Minus" d="M217.946,90.324v-.881l-.015-.073-.028-.086-.043-.071-.058-.058-.058-.058-.071-.043-.088-.028h-6.1l-.086.028-.058.043-.073.058-.058.058-.043.071-.028.086v1.04l.028.071.043.073.058.073.073.043.058.043.086.028h6.1l.088-.028.071-.043.058-.043.058-.073.043-.073.028-.071Zm1.688-3.68v6.682l-.028.187-.043.173-.058.187-.088.159-.1.159-.1.158-.144.144-.131.131-.158.129-.159.1-.159.073-.187.057-.173.058-.187.03h-6.768l-.189-.03-.173-.058-.187-.057-.159-.073-.158-.1-.159-.129-.131-.131-.129-.144-.115-.158-.1-.159-.073-.159-.071-.187-.043-.173-.03-.187V86.441l.03-.187.043-.173.071-.174.073-.173.1-.159.115-.144.129-.159.131-.129.159-.129.158-.088.159-.086.187-.058.173-.057.189-.015h6.768l.187.015.173.057.187.058.159.086.159.088.158.129.131.129.144.159.1.144.1.159.088.173.058.174.043.173.028.187Z" transform="translate(-209.432 -84.71)" fill="#9e9e9e" fill-rule="evenodd"/>
</svg>
