<svg xmlns="http://www.w3.org/2000/svg" width="10.203" height="10.364" viewBox="0 0 10.203 10.364">
  <path id="Plus" d="M674.762,58.388v-.881l-.013-.073-.03-.086-.043-.071-.058-.058-.057-.058-.073-.043-.086-.028h-2.194V54.923l-.013-.086-.03-.086-.043-.058-.043-.071L672,54.563l-.071-.043-.086-.015h-1l-.086.015-.071.043-.073.058-.043.071-.043.058-.03.086v2.253H668.3l-.086.028-.073.043-.057.058-.058.058-.043.071-.03.086v1.04l.03.071.043.073.058.073.057.043.073.043.086.028H670.5v2.253l.03.086.043.058.043.071.073.058.071.043.086.028h1l.086-.028.071-.043.073-.058.043-.071.043-.058.03-.086.013-.088V58.806H674.4l.086-.028.073-.043.057-.043.058-.073.043-.073.03-.071Zm1.689-3.681V61.39l-.028.187-.043.173-.073.187-.071.159-.1.159-.1.158-.144.144-.129.131-.159.129-.159.1-.158.073-.187.057-.174.058-.187.03h-6.769l-.187-.03-.173-.058-.189-.057-.158-.073-.159-.1-.159-.129-.129-.131-.144-.144-.1-.158-.1-.159-.071-.159-.073-.187-.043-.173-.028-.187V54.5l.028-.187.043-.173.073-.174.071-.173.1-.159.1-.144.144-.159.129-.129.159-.129.159-.088.158-.086.189-.058.173-.057.187-.015h6.769l.187.015.174.057.188.058.158.086.159.088.159.129.129.129.144.159.1.144.1.159.071.173.073.174.043.173.028.187Z" transform="translate(-666.248 -52.773)" fill="#9e9e9e" fill-rule="evenodd"/>
</svg>
