<svg width="40" height="41" viewBox="0 0 40 41" fill="none" xmlns="http://www.w3.org/2000/svg">
<g clip-path="url(#clip0)">
<circle cx="22.0841" cy="31.3424" r="2.33579" transform="rotate(45 22.0841 31.3424)" fill="#77878A"/>
<circle cx="27.0662" cy="31.1071" r="0.583947" transform="rotate(45 27.0662 31.1071)" fill="#77878A"/>
<circle cx="30.4224" cy="30.2168" r="0.87592" transform="rotate(45 30.4224 30.2168)" fill="#77878A"/>
<circle cx="33.759" cy="29.2529" r="0.87592" transform="rotate(45 33.759 29.2529)" fill="#77878A"/>
<circle r="0.583947" transform="matrix(-0.707107 -0.707107 -0.707107 0.707107 22.3457 26.3867)" fill="#77878A"/>
<circle r="0.87592" transform="matrix(-0.707107 -0.707107 -0.707107 0.707107 23.236 23.0308)" fill="#77878A"/>
<circle r="0.87592" transform="matrix(-0.707107 -0.707107 -0.707107 0.707107 24.2001 19.6938)" fill="#77878A"/>
<path d="M24.4592 26.0076C25.8161 26.6117 26.8917 27.7102 27.4673 29.0794L25.8523 29.7582C25.4494 28.7998 24.6965 28.0309 23.7467 27.608L24.4592 26.0076Z" fill="#77878A"/>
<path d="M25.8843 22.8067C28.0553 23.7733 29.7763 25.5308 30.6972 27.7215L28.9746 28.4456C28.2379 26.693 26.861 25.2871 25.1243 24.5138L25.8843 22.8067Z" fill="#77878A"/>
<path d="M27.3094 19.6063C30.2944 20.9353 32.6609 23.3519 33.9271 26.3641L32.0618 27.1482C30.995 24.6105 29.0013 22.5745 26.4864 21.4548L27.3094 19.6063Z" fill="#77878A"/>
</g>
<g clip-path="url(#clip1)">
<mask id="mask0" style="mask-type:alpha" maskUnits="userSpaceOnUse" x="4" y="5" width="16" height="16">
<path d="M14.2282 18.3418C14.2282 17.5159 14.5563 16.7237 15.1403 16.1397C15.7243 15.5557 16.5164 15.2276 17.3424 15.2276L17.3424 18.3418L14.2282 18.3418Z" fill="black"/>
<path d="M4.49552 18.3418C4.49552 16.6547 4.82781 14.9842 5.47343 13.4255C6.11904 11.8669 7.06533 10.4507 8.25827 9.25772C9.45121 8.06479 10.8674 7.1185 12.4261 6.47288C13.9847 5.82727 15.6553 5.49498 17.3423 5.49498L17.3423 13.6065C16.7205 13.6065 16.1047 13.729 15.5302 13.967C14.9557 14.2049 14.4337 14.5537 13.994 14.9934C13.5543 15.4332 13.2055 15.9552 12.9675 16.5297C12.7295 17.1042 12.607 17.7199 12.607 18.3418L4.49552 18.3418Z" fill="url(#paint0_radial)"/>
<path d="M7.01953 20.4062H19.4069V8.01888" stroke="url(#paint1_radial)" stroke-opacity="0.5" stroke-width="1.16789" stroke-linejoin="round"/>
</mask>
<g mask="url(#mask0)">
<rect y="14.2129" width="18.6863" height="18.6863" transform="rotate(-45 0 14.2129)" fill="#77878A"/>
</g>
</g>
<defs>
<radialGradient id="paint0_radial" cx="0" cy="0" r="1" gradientUnits="userSpaceOnUse" gradientTransform="translate(17.3423 18.3418) rotate(-135) scale(12.6958)">
<stop offset="0.351026"/>
<stop offset="0.515092" stop-opacity="0.671772"/>
<stop offset="0.628116" stop-opacity="0.505208"/>
<stop offset="0.799474" stop-opacity="0.254763"/>
<stop offset="1" stop-opacity="0"/>
</radialGradient>
<radialGradient id="paint1_radial" cx="0" cy="0" r="1" gradientUnits="userSpaceOnUse" gradientTransform="translate(18.994 19.9933) rotate(-135) scale(11.6789 12.1042)">
<stop offset="0.539208"/>
<stop offset="1" stop-opacity="0"/>
</radialGradient>
<clipPath id="clip0">
<rect width="18.6863" height="18.6863" fill="white" transform="translate(26.2133 14) rotate(45)"/>
</clipPath>
<clipPath id="clip1">
<rect width="18.6863" height="18.6863" fill="white" transform="translate(0 14.2129) rotate(-45)"/>
</clipPath>
</defs>
</svg>
