<svg width="80" height="80" viewBox="0 0 80 80" fill="none" xmlns="http://www.w3.org/2000/svg">
<path d="M35.5 79H29.5V1H35.5V79Z" fill="#D9D9D9"/>
<path d="M12.5 63L12.5107 63.2041C12.613 64.2128 13.4643 65 14.5 65H24.2021V71H12.5C9.18629 71 6.5 68.3137 6.5 65V53.2979H12.5V63Z" fill="#D9D9D9"/>
<path d="M68.5 65C68.5 65.2007 68.49 65.3991 68.4707 65.5947C68.4603 65.7007 68.4475 65.8059 68.4316 65.9102C68.0163 68.6393 65.762 70.762 62.9727 70.9795C62.8166 70.9917 62.6591 71 62.5 71H50.7979V65H60.5C61.6046 65 62.5 64.1046 62.5 63V53.2979H68.5V65Z" fill="#D9D9D9"/>
<path d="M46 34C46 34 46.4691 38.3773 48.2959 40.2041C50.1227 42.0309 54.5 42.5 54.5 42.5C54.5 42.5 50.1227 42.9691 48.2959 44.7959C46.4691 46.6227 46 51 46 51C46 51 45.5309 46.6227 43.7041 44.7959C41.8773 42.9691 37.5 42.5 37.5 42.5C37.5 42.5 41.8773 42.0309 43.7041 40.2041C45.5309 38.3773 46 34 46 34Z" fill="#D9D9D9"/>
<path d="M63 25C63 25 63.5793 30.4074 65.8359 32.6641C68.0926 34.9207 73.5 35.5 73.5 35.5C73.5 35.5 68.0926 36.0793 65.8359 38.3359C63.5793 40.5926 63 46 63 46C63 46 62.4207 40.5926 60.1641 38.3359C57.9074 36.0793 52.5 35.5 52.5 35.5C52.5 35.5 57.9074 34.9207 60.1641 32.6641C62.4207 30.4074 63 25 63 25Z" fill="#D9D9D9"/>
<path d="M52.5 1C52.5 1 53.328 8.72451 56.5518 11.9482C59.7755 15.172 67.5 16 67.5 16C67.5 16 59.7755 16.828 56.5518 20.0518C53.328 23.2755 52.5 31 52.5 31C52.5 31 51.672 23.2755 48.4482 20.0518C45.2245 16.828 37.5 16 37.5 16C37.5 16 45.2245 15.172 48.4482 11.9482C51.672 8.72451 52.5 1 52.5 1Z" fill="#D9D9D9"/>
<path d="M24.2021 15H14.5C13.3954 15 12.5 15.8954 12.5 17V26.7021H6.5V15C6.5 14.8406 6.50732 14.6827 6.51953 14.5264C6.76105 11.4341 9.34573 9 12.5 9H24.2021V15Z" fill="#D9D9D9"/>
</svg>
