<?xml version="1.0" encoding="UTF-8" ?>

<svg width="32" height="32" version="1.1" viewBox="0 0 32 32" xmlns="http://www.w3.org/2000/svg">
    <path fill="white" fill-opacity="0.5" d="M 6.4296875 11.785156 L 6.4296875 15.791016 L 3 15.791016 L 3 17.492188 L 6.4296875 17.492188 L 6.4296875 21.496094 L 8.6835938 21.496094 L 8.6835938 17.492188 L 12.113281 17.492188 L 12.113281 15.791016 L 8.6835938 15.791016 L 8.6835938 11.785156 L 6.4296875 11.785156 z "/>
    <path fill="white" d="M 14.650391 6.0292969 L 14.650391 25.207031 L 19.150391 25.207031 L 19.177734 18.332031 L 22.478516 18.332031 L 26.734375 25.152344 L 31.646484 25.179688 L 26.898438 17.705078 L 27.634766 17.486328 L 28.318359 17.132812 L 29.109375 16.585938 L 30.009766 15.603516 L 30.554688 14.648438 L 30.882812 13.558594 L 30.990234 12.466797 L 30.935547 11.130859 L 30.664062 9.984375 L 29.982422 8.8378906 L 29.191406 7.9648438 L 28.181641 7.2285156 L 26.654297 6.5742188 L 25.425781 6.2734375 L 24.0625 6.1113281 L 14.650391 6.0292969 z M 19.205078 9.4941406 L 23.242188 9.5214844 L 24.498047 9.7109375 L 25.642578 10.230469 L 26.351562 11.048828 L 26.488281 12.140625 L 26.40625 13.121094 L 26.025391 13.912109 L 25.042969 14.595703 L 23.679688 14.894531 L 19.177734 14.894531 L 19.205078 9.4941406 z "/>
</svg>
