<svg id="FolderOpen_Light" xmlns="http://www.w3.org/2000/svg" width="18" height="18" viewBox="0 0 18 18">
  <rect id="iconBase" width="18" height="18" fill="none"/>
  <path id="folder_open" d="M57.424,59.4l-.02.155-.058.137-.1.157-.1.175-3.02,3.6-.215.213-.253.195-.291.195-.331.177-.331.137-.331.116-.311.058H41.705l-.137-.038-.118-.06-.1-.076-.078-.1-.058-.1v-.273l.058-.137.1-.175.116-.137,3.02-3.6.213-.233.235-.195.291-.215.331-.157.331-.155.331-.078.311-.078.331-.02h9.74l.155.02.137.02.137.038.137.058.078.058.078.078.058.116Zm-3.1-3.118v1.442H46.885l-.428.04-.235.018-.213.058L45.8,57.9l-.235.078-.233.078-.215.116-.213.118-.235.1-.195.137-.195.137-.349.291-.293.313-3.02,3.6-.058.058V53.728l.04-.195.038-.175.078-.195.078-.175.1-.177L41,52.658l.157-.157.137-.155.175-.1.157-.116.175-.1L41.976,52l.195-.058.195-.02.195-.02h2.883l.195.02.195.02.195.058.177.038.175.1.175.116.137.1.175.155.118.157.137.155.1.177.078.175.078.195.038.175.038.195v.508h4.871l.215.018.195.02.175.058.195.04.155.1.177.1.155.116.157.155.157.157.1.157.116.175.078.175.058.195.04.177.038.195Z" transform="translate(-39.555 -49.591)" fill="white" fill-rule="evenodd"/>
</svg>
