<svg
   xmlns="http://www.w3.org/2000/svg"
   id="svg12"
   version="1.1"
   fill="none"
   viewBox="0 0 16 16"
   height="16"
   width="16">
  <path
     id="path2"
     stroke="white"
     d="M2.5 6V5V4.5C2.5 3.39543 3.39543 2.5 4.5 2.5H5H6" />
  <path
     id="path4"
     stroke="white"
     d="M13.5 10L13.5 11L13.5 11.5C13.5 12.6046 12.6046 13.5 11.5 13.5L11 13.5L10 13.5" />
  <path
     id="path6"
     stroke="white"
     d="M10 2.5L11 2.5L11.5 2.5C12.6046 2.5 13.5 3.39543 13.5 4.5L13.5 5L13.5 6" />
  <path
     id="path8"
     stroke="white"
     d="M6 13.5L5 13.5L4.5 13.5C3.39543 13.5 2.5 12.6046 2.5 11.5L2.5 11L2.5 10" />
  <path
     d="M 10,8 A 2,2 0 0 1 8,10 2,2 0 0 1 6,8 2,2 0 0 1 8,6 2,2 0 0 1 10,8"
     style="fill:#ffffff"
     id="circle10" />
</svg>
