<svg width="80" height="80" viewBox="0 0 80 80" fill="none" xmlns="http://www.w3.org/2000/svg">
<path fill-rule="evenodd" clip-rule="evenodd" d="M35.0508 7.87855C37.7844 5.14517 42.2166 5.1451 44.9502 7.87855L69.9316 32.86C71.2441 34.1726 71.9814 35.953 71.9814 37.8092V67.1715C71.9814 71.0373 68.8472 74.1713 64.9814 74.1715H15.0195C11.1535 74.1715 8.01856 71.0375 8.01855 67.1715V37.8092C8.01863 35.953 8.75687 34.1727 10.0693 32.86L35.0508 7.87855ZM40.708 12.1217C40.3176 11.7313 39.6845 11.7314 39.2939 12.1217L14.3125 37.1022C14.125 37.2897 14.0196 37.5441 14.0195 37.8092V67.1715C14.0195 67.7238 14.4673 68.1715 15.0195 68.1715H30.9629V46.8131C30.9629 44.604 32.7538 42.8131 34.9629 42.8131H45.0381C47.247 42.8134 49.0381 44.6041 49.0381 46.8131V68.1715H64.9814C65.5335 68.1713 65.9814 67.7236 65.9814 67.1715V37.8092C65.9814 37.5442 65.8758 37.2896 65.6885 37.1022L40.708 12.1217Z" fill="#D9D9D9"/>
</svg>
