<svg width="80" height="80" viewBox="0 0 80 80" fill="none" xmlns="http://www.w3.org/2000/svg">
<path d="M61 61.5V67.5H67V73.5H61V79.5H55V73.5H49V67.5H55V61.5H61ZM9 65.5V8.5C9 4.08172 12.5817 0.500001 17 0.5H52.4141C54.5768 0.5 56.6478 1.37599 58.1543 2.92773L68.7402 14.8613C70.1894 16.3542 71 18.353 71 20.4336V63.5L65 57.5V21.4336C65 20.3933 64.5947 19.3939 63.8701 18.6475L54.2842 7.71387C53.5309 6.938 52.4954 6.5 51.4141 6.5H19C16.7909 6.5 15 8.29086 15 10.5V63.5C15 65.7091 16.7909 67.5 19 67.5H43V73.5H17C12.5817 73.5 9 69.9183 9 65.5Z" fill="#D9D9D9"/>
<path d="M27 43.3154L37 49.2373V40.1572L27 34.2363V43.3154ZM43 40.1572V49.2373L53 43.3154V34.2363L43 40.1572ZM29.8877 28.9736L40 34.9619L50.1113 28.9736L40 22.9854L29.8877 28.9736ZM59 45.0264C58.9999 46.0862 58.4403 47.0674 57.5283 47.6074L41.5283 57.0811C40.5857 57.6392 39.4143 57.6392 38.4717 57.0811L22.4717 47.6074C21.5597 47.0674 21.0001 46.0862 21 45.0264V28.9736C21.0001 27.9138 21.5597 26.9326 22.4717 26.3926L38.4717 16.919L38.6504 16.8203C39.5593 16.3623 40.6446 16.3957 41.5283 16.919L57.5283 26.3926C58.4403 26.9326 58.9999 27.9138 59 28.9736V45.0264Z" fill="#D9D9D9"/>
</svg>
