<svg width="80" height="80" viewBox="0 0 80 80" fill="none" xmlns="http://www.w3.org/2000/svg">
<path d="M23 31.8748C23 25.2473 28.3726 19.8748 35 19.8748H58V46.8748C58 53.3987 52.7939 58.7066 46.3096 58.8708L46 58.8748V54.8748C50.4183 54.8748 54 51.293 54 46.8748V23.8748H35C30.5817 23.8748 27 27.4565 27 31.8748V54.8748H46V58.8748H23V31.8748Z" fill="#D9D9D9"/>
<path d="M56.0005 30.1261V34.1261H26.0005V30.1261H56.0005Z" fill="#D9D9D9"/>
<path d="M14.5 35.1248C14.5 33.1919 12.9331 31.6248 11 31.6248C9.06693 31.6248 7.5 33.1919 7.5 35.1248C7.50008 37.0575 9.06698 38.6248 11 38.6248V42.6248L10.6143 42.615C6.7792 42.4207 3.70414 39.3455 3.50977 35.5105L3.5 35.1248C3.5 30.9827 6.85787 27.6248 11 27.6248L11.3857 27.6345C15.3486 27.8353 18.5 31.1121 18.5 35.1248L18.4902 35.5105C18.2894 39.4732 15.0127 42.6248 11 42.6248V38.6248C12.933 38.6248 14.4999 37.0575 14.5 35.1248Z" fill="#D9D9D9"/>
<path d="M26.626 33.126V37.126H16.001V33.126H26.626Z" fill="#D9D9D9"/>
<path d="M65.5 40.626C65.5 38.6931 67.0669 37.126 69 37.126C70.9331 37.126 72.5 38.6931 72.5 40.626C72.4999 42.5588 70.933 44.126 69 44.126V48.126L69.3857 48.1162C73.2208 47.9219 76.2959 44.8467 76.4902 41.0117L76.5 40.626C76.5 36.4839 73.1421 33.126 69 33.126L68.6143 33.1357C64.6514 33.3365 61.5 36.6133 61.5 40.626L61.5098 41.0117C61.7106 44.9744 64.9873 48.126 69 48.126V44.126C67.067 44.126 65.5001 42.5588 65.5 40.626Z" fill="#D9D9D9"/>
<path d="M55.9988 38.6243V42.6243H63.6238V38.6243H55.9988Z" fill="#D9D9D9"/>
<path d="M14.5 52.6255C14.5 50.6926 12.9331 49.1255 11 49.1255C9.06693 49.1255 7.5 50.6926 7.5 52.6255C7.50008 54.5583 9.06698 56.1255 11 56.1255V60.1255L10.6143 60.1157C6.7792 59.9214 3.70414 56.8462 3.50977 53.0112L3.5 52.6255C3.5 48.4834 6.85787 45.1255 11 45.1255L11.3857 45.1353C15.3486 45.336 18.5 48.6128 18.5 52.6255L18.4902 53.0112C18.2894 56.974 15.0127 60.1255 11 60.1255V56.1255C12.933 56.1255 14.4999 54.5583 14.5 52.6255Z" fill="#D9D9D9"/>
<path d="M26.626 50.624V54.624H16.001V50.624H26.626Z" fill="#D9D9D9"/>
</svg>
