<svg width="80" height="80" viewBox="0 0 80 80" fill="none" xmlns="http://www.w3.org/2000/svg">
<path d="M64.0003 28.5525V32.5525H59.1223V28.5525H64.0003ZM68.0003 24.5525V19.6746C68.0003 17.4655 66.2093 15.6747 64.0003 15.6746H59.1223C56.9132 15.6746 55.1223 17.4654 55.1223 19.6746V24.5525C55.1225 26.7615 56.9133 28.5525 59.1223 28.5525V32.5525L58.7102 32.5417C54.6197 32.3342 51.3403 29.0542 51.1331 24.9636L51.1223 24.5525V19.6746C51.1223 15.2563 54.7041 11.6746 59.1223 11.6746H64.0003L64.4114 11.6853C68.6385 11.8994 72.0003 15.3943 72.0003 19.6746V24.5525L71.9895 24.9636C71.7823 29.0545 68.5022 32.3345 64.4114 32.5417L64.0003 32.5525V28.5525C66.2092 28.5524 68.0001 26.7614 68.0003 24.5525Z" fill="#D9D9D9"/>
<path d="M38.2154 39.9153C38.2154 35.8078 38.7095 31.0778 40.8287 27.3187C41.9082 25.4037 43.4194 23.7228 45.4947 22.5325C47.5669 21.3441 50.0908 20.7083 53.1011 20.7083V24.7083C50.6626 24.7083 48.8505 25.2191 47.4849 26.0022C46.1225 26.7836 45.0928 27.8995 44.313 29.2825C42.7138 32.1193 42.2154 35.9932 42.2154 39.9153C42.2154 43.9981 41.7871 48.7277 39.7369 52.4876C38.6905 54.4066 37.2098 56.0956 35.1509 57.2923C33.096 58.4867 30.5826 59.1224 27.5728 59.1224V55.1224C30.0118 55.1224 31.8031 54.6105 33.1402 53.8333C34.4733 53.0584 35.4723 51.9514 36.2242 50.5726C37.7706 47.7366 38.2154 43.8623 38.2154 39.9153Z" fill="#D9D9D9"/>
<path d="M21.1265 64.326V68.326H16.2485V64.326H21.1265ZM25.1265 60.326V55.4481C25.1265 53.239 23.3355 51.4482 21.1265 51.4481H16.2485C14.0394 51.4481 12.2485 53.239 12.2485 55.4481V60.326C12.2487 62.5351 14.0395 64.326 16.2485 64.326V68.326L15.8364 68.3153C11.7459 68.1077 8.4665 64.8278 8.25929 60.7372L8.24854 60.326V55.4481C8.24854 51.0298 11.8303 47.4481 16.2485 47.4481H21.1265L21.5376 47.4588C25.7647 47.673 29.1265 51.1678 29.1265 55.4481V60.326L29.1157 60.7372C28.9085 64.828 25.6284 68.1081 21.5376 68.3153L21.1265 68.326V64.326C23.3354 64.3259 25.1263 62.535 25.1265 60.326Z" fill="#D9D9D9"/>
<path d="M20.8779 28.586V32.586H16V28.586H20.8779ZM24.8779 24.586V19.7081C24.8779 17.499 23.0869 15.7082 20.8779 15.7081H16C13.7909 15.7081 12 17.4989 12 19.7081V24.586C12.0001 26.795 13.791 28.586 16 28.586V32.586L15.5879 32.5752C11.4974 32.3677 8.21796 29.0877 8.01074 24.9971L8 24.586V19.7081C8 15.2898 11.5817 11.7081 16 11.7081H20.8779L21.2891 11.7188C25.5161 11.9329 28.8779 15.4278 28.8779 19.7081V24.586L28.8672 24.9971C28.66 29.088 25.3799 32.368 21.2891 32.5752L20.8779 32.586V28.586C23.0869 28.5858 24.8778 26.7949 24.8779 24.586Z" fill="#D9D9D9"/>
<path d="M52.9246 20.7083V24.7083H27.8641V20.7083H52.9246Z" fill="#D9D9D9"/>
</svg>
