<svg xmlns="http://www.w3.org/2000/svg" xmlns:xlink="http://www.w3.org/1999/xlink" width="144" height="144" viewBox="0 0 144 144">
  <defs>
    <linearGradient id="linear-gradient" x1="0.949" y1="0.973" x2="0.173" y2="0.016" gradientUnits="objectBoundingBox">
      <stop offset="0" stop-color="#4f6a20"/>
      <stop offset="1" stop-color="#769147"/>
    </linearGradient>
    <filter id="Union_59" x="34.357" y="38.307" width="81.286" height="73.385" filterUnits="userSpaceOnUse">
      <feOffset dx="3" dy="3" input="SourceAlpha"/>
      <feGaussianBlur stdDeviation="1.5" result="blur"/>
      <feFlood flood-opacity="0.6"/>
      <feComposite operator="in" in2="blur"/>
      <feComposite in="SourceGraphic"/>
    </filter>
  </defs>
  <g id="remix_wizard_edit_mod_icon_only" transform="translate(-5167 -1113)">
    <rect id="Rectangle_2269" data-name="Rectangle 2269" width="144" height="144" rx="12" transform="translate(5167 1113)" opacity="0" fill="url(#linear-gradient)"/>
    <g transform="matrix(1, 0, 0, 1, 5167, 1113)" filter="url(#Union_59)">
      <path id="Union_59-2" data-name="Union 59" d="M62.217,69.2,60.9,66.92a10.082,10.082,0,0,1-3.753,0L55.834,69.2a.643.643,0,0,1-.746.289,13.3,13.3,0,0,1-5.061-2.918.645.645,0,0,1-.12-.795L51.222,63.5a10.278,10.278,0,0,1-1.876-3.25h-2.63a.639.639,0,0,1-.629-.5,13.243,13.243,0,0,1,0-5.841.635.635,0,0,1,.624-.5l2.625,0a10.409,10.409,0,0,1,1.876-3.25L49.9,47.877a.641.641,0,0,1,.122-.793,13.438,13.438,0,0,1,5.055-2.919.639.639,0,0,1,.748.291l1.312,2.272a10.082,10.082,0,0,1,3.753,0l1.315-2.278a.644.644,0,0,1,.747-.289,13.31,13.31,0,0,1,5.061,2.918.646.646,0,0,1,.12.795L66.82,50.153A10.308,10.308,0,0,1,68.7,53.4h2.63a.662.662,0,0,1,.636.5,13.233,13.233,0,0,1,0,5.842.635.635,0,0,1-.624.5H68.7A10.389,10.389,0,0,1,66.828,63.5l1.315,2.277a.64.64,0,0,1-.122.794,13.448,13.448,0,0,1-5.055,2.919.634.634,0,0,1-.192.03A.644.644,0,0,1,62.217,69.2ZM56.879,53.12a4.28,4.28,0,1,0,2.13-.571A4.282,4.282,0,0,0,56.879,53.12ZM20.264,59.692V57.159a2.4,2.4,0,0,1,.077-.62,20.045,20.045,0,0,1-5.361-2.231,2.365,2.365,0,0,1-.39.5L12.8,56.6a2.537,2.537,0,0,1-3.588,0L5.624,53.014a2.538,2.538,0,0,1,0-3.586l1.793-1.794a2.76,2.76,0,0,1,.5-.389,20.009,20.009,0,0,1-2.23-5.378,2.645,2.645,0,0,1-.622.077H2.531A2.535,2.535,0,0,1,0,39.414l0-5.062a2.524,2.524,0,0,1,2.529-2.53H5.062a2.427,2.427,0,0,1,.624.072,19.992,19.992,0,0,1,2.228-5.378,2.582,2.582,0,0,1-.494-.39l-1.8-1.793a2.528,2.528,0,0,1,0-3.587l3.588-3.587a2.54,2.54,0,0,1,3.587,0l1.793,1.794a2.569,2.569,0,0,1,.389.5,19.805,19.805,0,0,1,5.365-2.228,2.437,2.437,0,0,1-.08-.625V14.068A2.528,2.528,0,0,1,22.8,11.543h5.057a2.534,2.534,0,0,1,2.54,2.525L30.389,16.6a2.542,2.542,0,0,1-.077.625,20.172,20.172,0,0,1,5.364,2.228,2.477,2.477,0,0,1,.39-.5l1.793-1.8a2.54,2.54,0,0,1,3.586,0l3.587,3.587a2.526,2.526,0,0,1,0,3.588l-1.794,1.791a2.477,2.477,0,0,1-.5.392,20.1,20.1,0,0,1,2.231,5.362,2.506,2.506,0,0,1,.618-.075l2.537,0a2.524,2.524,0,0,1,2.527,2.532V39.4a2.534,2.534,0,0,1-2.529,2.533H45.583a2.4,2.4,0,0,1-.618-.081,20.087,20.087,0,0,1-2.231,5.378,2.563,2.563,0,0,1,.5.391l1.8,1.794a2.54,2.54,0,0,1,0,3.586l-3.587,3.587a2.522,2.522,0,0,1-3.586,0l-1.793-1.794a2.4,2.4,0,0,1-.39-.5,20.045,20.045,0,0,1-5.364,2.228,2.619,2.619,0,0,1,.077.624v2.532a2.529,2.529,0,0,1-2.534,2.537l-5.057.012A2.534,2.534,0,0,1,20.264,59.692Zm5.062-10.123a12.657,12.657,0,1,0-12.661-12.65l.008-.008A12.672,12.672,0,0,0,25.325,49.568ZM62.217,30.2,60.9,27.921a10.1,10.1,0,0,1-3.753,0L55.834,30.2a.642.642,0,0,1-.746.29,13.3,13.3,0,0,1-5.061-2.918.645.645,0,0,1-.12-.795L51.222,24.5a10.288,10.288,0,0,1-1.876-3.25h-2.63a.64.64,0,0,1-.629-.5,13.247,13.247,0,0,1,0-5.842.636.636,0,0,1,.624-.5l2.625,0a10.424,10.424,0,0,1,1.876-3.251L49.9,8.878a.641.641,0,0,1,.122-.793,13.452,13.452,0,0,1,5.055-2.92.641.641,0,0,1,.748.291l1.312,2.273a10.082,10.082,0,0,1,3.753,0l1.315-2.278a.644.644,0,0,1,.747-.289A13.31,13.31,0,0,1,68.015,8.08a.646.646,0,0,1,.12.795L66.82,11.153A10.3,10.3,0,0,1,68.7,14.4h2.63a.66.66,0,0,1,.636.5,13.233,13.233,0,0,1,0,5.842.634.634,0,0,1-.624.5H68.7a10.374,10.374,0,0,1-1.876,3.25l1.315,2.278a.639.639,0,0,1-.122.793,13.424,13.424,0,0,1-5.055,2.919.632.632,0,0,1-.193.03A.642.642,0,0,1,62.217,30.2ZM56.879,14.12a4.279,4.279,0,1,0,2.13-.572A4.282,4.282,0,0,0,56.879,14.12Z" transform="translate(35.86 34.67)" fill="#fff" opacity="0.7"/>
    </g>
  </g>
</svg>
