<svg width="80" height="80" viewBox="0 0 80 80" fill="none" xmlns="http://www.w3.org/2000/svg">
<path fill-rule="evenodd" clip-rule="evenodd" d="M34.2919 23.7183C40.5654 21.6103 47.7698 23.0541 52.7671 28.0514C57.4781 32.7624 59.031 39.4348 57.4275 45.4398L74.8671 63.0209C78.3816 66.5356 78.3817 72.2341 74.8671 75.7488C71.3524 79.2634 65.6539 79.2633 62.1391 75.7488L44.6996 58.1677C38.6946 59.7711 32.0223 58.2183 27.3113 53.5073C22.3139 48.51 20.8702 41.3056 22.9782 35.032L28.0591 40.113C27.8773 43.4022 29.0412 46.7519 31.5539 49.2646C36.2402 53.9509 43.8382 53.9509 48.5245 49.2646C53.2108 44.5784 53.2108 36.9804 48.5245 32.2941C46.0118 29.7814 42.662 28.6174 39.3728 28.7993L34.2919 23.7183ZM54.711 51.2085C54.1368 52.0142 53.49 52.7844 52.7671 53.5073C52.0443 54.2301 51.274 54.8769 50.4683 55.4511L66.3818 71.5061C67.5534 72.6775 69.4529 72.6777 70.6244 71.5061C71.7959 70.3346 71.7958 68.4351 70.6244 67.2635L54.711 51.2085Z" fill="#D9D9D9"/>
<path d="M40.6865 1.62109C42.2848 1.64961 43.8591 1.77762 45.4033 1.99805C47.0232 2.22943 48.2476 3.53489 48.5195 5.14844L49.0068 8.03711C49.4977 10.9483 52.8652 12.3428 55.2705 10.6309L57.8076 8.8252C59.1194 7.89156 60.875 7.8199 62.1816 8.76074C65.5186 11.164 68.4502 14.0957 70.8535 17.4326C71.7941 18.7391 71.7224 20.4949 70.7891 21.8066L68.9834 24.3447C67.272 26.7503 68.6668 30.117 71.5781 30.6074L74.4658 31.0938C76.0794 31.3657 77.3846 32.591 77.6162 34.2109C77.8686 35.9761 78 37.7804 78 39.6152L77.9893 40.5059C77.9414 42.5787 77.7277 44.6109 77.3604 46.5889L77.2949 46.875C76.9114 48.2818 75.6983 49.3085 74.2383 49.5547L71.5771 50.0039C71.1008 50.0842 70.6655 50.2424 70.2773 50.46L66.0654 46.0693C67.3176 45.0851 68.8403 44.3802 70.5801 44.0869L71.7139 43.8955C71.9009 42.4972 72 41.0688 72 39.6152C72 38.646 71.9558 37.6875 71.8711 36.7412L70.5811 36.5244C63.3029 35.2982 59.8159 26.8801 64.0947 20.8662L64.9805 19.6201C63.506 17.7807 61.8325 16.1081 59.9932 14.6338L58.75 15.5195C52.7364 19.7995 44.3166 16.3126 43.0898 9.03418L42.8721 7.74219C41.9267 7.65783 40.9688 7.61523 40 7.61523C38.5454 7.61523 37.1162 7.71272 35.7178 7.89941L35.5273 9.0332C34.3012 16.3118 25.8821 19.7992 19.8682 15.5195L19.3623 15.1592C17.4741 16.7543 15.7738 18.5642 14.2979 20.5498L14.5225 20.8652C18.7796 26.8479 15.3507 35.2089 8.14941 36.5029C8.05056 37.526 8 38.5641 8 39.6152C8 41.1528 8.10915 42.6627 8.31836 44.1387C15.2424 45.5006 18.5896 53.4354 14.7979 59.335C16.397 61.3752 18.2389 63.2162 20.2793 64.8154C26.1788 61.0242 34.1121 64.3722 35.4746 71.2949C36.9515 71.5046 38.4619 71.6152 40 71.6152V77.6152L39.0742 77.6045C36.9198 77.5526 34.8099 77.3195 32.7588 76.9229C31.3139 76.6434 30.2226 75.509 29.877 74.0928L29.8184 73.8057L29.6104 72.5752C29.1197 69.6642 25.7531 68.2692 23.3477 69.9805L22.4688 70.6055C21.2491 71.4733 19.6449 71.5977 18.374 70.8516L18.125 70.6904C14.7794 68.3311 11.8313 65.4453 9.40234 62.1533L8.92383 61.4893C8.00371 60.1843 8.08293 58.4464 9.00879 57.1455L9.63281 56.2676C11.2916 53.9373 10.035 50.7035 7.30762 50.0576L7.03906 50.0039L5.80762 49.7959C4.35666 49.5513 3.14858 48.5354 2.75781 47.1396L2.69141 46.8555C2.29511 44.8047 2.06252 42.695 2.01074 40.541L2 39.6152C2 37.6891 2.1439 35.7963 2.4209 33.9473C2.66204 32.3384 3.96309 31.1257 5.56738 30.8555L7.03906 30.6074C9.95054 30.117 11.3456 26.7494 9.63379 24.3438L8.52441 22.7852C7.61809 21.5115 7.52153 19.815 8.39062 18.5156C10.7516 14.9859 13.6885 11.8738 17.0664 9.31348C18.3761 8.3208 20.1747 8.37335 21.5137 9.32617L23.3477 10.6309C25.6782 12.2892 28.9112 11.0321 29.5566 8.30469L29.6113 8.03711L30.0596 5.37598C30.3219 3.81852 31.4725 2.54213 33.0254 2.25391C35.2862 1.83452 37.6177 1.61523 40 1.61523L40.6865 1.62109Z" fill="#D9D9D9"/>
<path d="M49.5117 71.1895C49.2687 71.5986 49.0931 72.0628 49.0068 72.5742L48.7588 74.0469L48.6973 74.3447C48.3353 75.81 47.175 76.967 45.667 77.1934L44.9717 77.291C43.3446 77.5046 41.6852 77.6152 40 77.6152V71.6152C41.0502 71.6152 42.0875 71.563 43.1104 71.4639C43.4325 69.6723 44.1916 68.1139 45.2432 66.8496L49.5117 71.1895Z" fill="#D9D9D9"/>
<path d="M40 34L45.1962 37V43L40 46L34.8038 43V37L40 34Z" fill="#D9D9D9"/>
</svg>
