<svg width="16" height="16" viewBox="0 0 16 16" fill="none" xmlns="http://www.w3.org/2000/svg">
<g opacity="1.0">
<path d="M5.01073 12.51C5.01073 13.3384 4.33916 14.01 3.51073 14.01C2.59541 14.01 2.01074 13.2667 2.01074 12.3019C2.01074 11.4924 2.15588 11.0985 2.35901 10.6493C2.56213 10.2 2.98153 9.5618 3.50024 9L4.00024 9.5C3.50024 9.96369 3.22522 10.6769 3.51073 11.01C4.33916 11.01 5.01073 11.6815 5.01073 12.51Z" fill="white"/>
<path d="M8.99999 12.51C8.99999 13.3384 8.32842 14.01 7.49999 14.01C6.58467 14.01 6 13.2667 6 12.3019C6 11.4924 6.14514 11.0985 6.34827 10.6493C6.55139 10.2 6.97079 9.5618 7.4895 9L7.9895 9.5C7.4895 9.96369 7.21448 10.6769 7.49999 11.01C8.32842 11.01 8.99999 11.6815 8.99999 12.51Z" fill="white"/>
<path d="M10.9893 3.50005C10.9893 2.67162 11.6608 2.00005 12.4893 2.00005C13.4046 2.00005 13.9893 2.74331 13.9893 3.70815C13.9893 4.51759 13.8441 4.91154 13.641 5.36076C13.4379 5.80998 13.0185 6.44821 12.4998 7.01001L11.9998 6.51001C12.4998 6.04632 12.7748 5.33315 12.4893 5.00005C11.6608 5.00005 10.9893 4.32848 10.9893 3.50005Z" fill="white"/>
<path d="M7.00001 3.50005C7.00001 2.67162 7.67158 2.00005 8.50001 2.00005C9.41533 2.00005 10 2.74331 10 3.70815C10 4.51759 9.85486 4.91154 9.65173 5.36076C9.44861 5.80998 9.02921 6.44821 8.5105 7.01001L8.0105 6.51001C8.5105 6.04632 8.78552 5.33315 8.50001 5.00005C7.67158 5.00005 7.00001 4.32848 7.00001 3.50005Z" fill="white"/>
</g>
</svg>
