<svg width="80" height="80" viewBox="0 0 80 80" fill="none" xmlns="http://www.w3.org/2000/svg">
<path d="M16 51.8174L37 64.2393V44.1524L16 31.7304V51.8174ZM43 44.1524V64.2393L64 51.8174V31.7304L43 44.1524ZM18.8916 26.4707L40 38.9551L47.6074 34.456L26.5 21.9707L18.8916 26.4707ZM32.3916 18.4853L53.5 30.9697L61.1074 26.4707L40 13.9853L32.3916 18.4853ZM70 53.5293C70 54.5898 69.44 55.5714 68.5273 56.1114L41.5273 72.0821C40.5854 72.6393 39.4146 72.6393 38.4727 72.0821L11.4727 56.1114C10.56 55.5714 10 54.5898 10 53.5293V26.4707C10 25.4102 10.56 24.4286 11.4727 23.8886L38.4727 7.91789C39.4146 7.3607 40.5854 7.3607 41.5273 7.91789L68.5273 23.8886C69.44 24.4286 70 25.4102 70 26.4707V53.5293Z" fill="#D9D9D9"/>
</svg>
