<svg width="24" height="24" viewBox="0 0 24 24" fill="none" fill-rule="evenodd" xmlns="http://www.w3.org/2000/svg">
    <g transform="matrix(1.17038,0,0,1.17038,-2.02831,-3.16417)">
        <path fill="white" d="M11.905,14C14.428,14 16.476,16.048 16.476,18.571C16.476,21.094 14.428,23.143 11.905,23.143C9.382,23.143 7.333,21.094 7.333,18.571C7.333,16.048 9.382,14 11.905,14ZM11.905,15.75C13.462,15.75 14.726,17.014 14.726,18.571C14.726,20.129 13.462,21.393 11.905,21.393C10.348,21.393 9.083,20.129 9.083,18.571C9.083,17.014 10.348,15.75 11.905,15.75Z"/>
    </g>
    <path fill="white" d="M11.905,16.762C12.903,16.762 13.714,17.573 13.714,18.571C13.714,19.57 12.903,20.381 11.905,20.381C10.906,20.381 10.095,19.57 10.095,18.571C10.095,17.573 10.906,16.762 11.905,16.762ZM11.905,17.72C12.375,17.72 12.756,18.102 12.756,18.571C12.756,19.041 12.375,19.423 11.905,19.423C11.435,19.423 11.054,19.041 11.054,18.571C11.054,18.102 11.435,17.72 11.905,17.72Z"/>
    <path fill="white" d="M2.571,12.476C3.991,12.476 5.143,13.628 5.143,15.048C5.143,16.467 3.991,17.619 2.571,17.619C1.152,17.619 0,16.467 0,15.048C0,13.628 1.152,12.476 2.571,12.476ZM2.571,14.226C3.025,14.226 3.393,14.594 3.393,15.048C3.393,15.501 3.025,15.869 2.571,15.869C2.118,15.869 1.75,15.501 1.75,15.048C1.75,14.594 2.118,14.226 2.571,14.226Z"/>
    <path fill="white" d="M21.143,9.619C22.72,9.619 24,10.899 24,12.476C24,14.053 22.72,15.333 21.143,15.333C19.566,15.333 18.286,14.053 18.286,12.476C18.286,10.899 19.566,9.619 21.143,9.619ZM21.143,11.369C21.754,11.369 22.25,11.865 22.25,12.476C22.25,13.087 21.754,13.583 21.143,13.583C20.532,13.583 20.036,13.087 20.036,12.476C20.036,11.865 20.532,11.369 21.143,11.369Z"/>
    <path fill="white" d="M5.333,3.429C7.068,3.429 8.476,4.837 8.476,6.571C8.476,8.306 7.068,9.714 5.333,9.714C3.599,9.714 2.19,8.306 2.19,6.571C2.19,4.837 3.599,3.429 5.333,3.429ZM5.333,5.179C6.102,5.179 6.726,5.803 6.726,6.571C6.726,7.34 6.102,7.964 5.333,7.964C4.565,7.964 3.94,7.34 3.94,6.571C3.94,5.803 4.565,5.179 5.333,5.179Z"/>
    <path fill="white" d="M12.857,0C14.592,0 16,1.408 16,3.143C16,4.877 14.592,6.286 12.857,6.286C11.123,6.286 9.714,4.877 9.714,3.143C9.714,1.408 11.123,0 12.857,0ZM12.857,1.75C13.626,1.75 14.25,2.374 14.25,3.143C14.25,3.912 13.626,4.536 12.857,4.536C12.088,4.536 11.464,3.912 11.464,3.143C11.464,2.374 12.088,1.75 12.857,1.75Z"/>
    <path fill="white" d="M16.381,7.429C17.432,7.429 18.286,8.282 18.286,9.333C18.286,10.385 17.432,11.238 16.381,11.238C15.33,11.238 14.476,10.385 14.476,9.333C14.476,8.282 15.33,7.429 16.381,7.429ZM16.381,8.884C16.629,8.884 16.83,9.085 16.83,9.333C16.83,9.581 16.629,9.783 16.381,9.783C16.133,9.783 15.932,9.581 15.932,9.333C15.932,9.085 16.133,8.884 16.381,8.884Z"/>
    <path d="M12.81,5.429L12.333,14.762" stroke="white" stroke-width="1.5"/>
    <g transform="matrix(0.847102,-5.55112e-17,5.55112e-17,0.847102,1.4853,2.25707)">
        <path d="M5.81,7.429L9.714,14.762" stroke="white" stroke-width="1.8"/>
    </g>
    <g transform="matrix(0.860347,0.0754883,0.0754883,0.959195,0.878361,-0.47479)">
        <path d="M20.095,12.905L14.81,15.762" stroke="white" stroke-width="1.5"/>
    </g>
</svg>
