<svg width="24" height="24" viewBox="0 0 24 24" fill="none" xmlns="http://www.w3.org/2000/svg">
    <path fill="white" d="M8.01,13.081L10.095,15.165C8.878,15.814 8.048,17.097 8.048,18.571C8.048,20.7 9.776,22.429 11.905,22.429C13.379,22.429 14.662,21.599 15.311,20.382L16.354,21.424C15.413,22.888 13.771,23.857 11.905,23.857C8.987,23.857 6.619,21.489 6.619,18.571C6.619,16.86 7.434,15.338 8.697,14.371L8.01,13.081ZM11.703,16.773L13.703,18.773C13.602,19.677 12.835,20.381 11.905,20.381C10.906,20.381 10.095,19.57 10.095,18.571C10.095,17.641 10.799,16.874 11.703,16.773ZM2.571,12.476C3.991,12.476 5.143,13.628 5.143,15.048C5.143,16.467 3.991,17.619 2.571,17.619C1.152,17.619 0,16.467 0,15.048C0,13.628 1.152,12.476 2.571,12.476ZM16.941,13.798L18.342,13.041C18.305,12.858 18.286,12.669 18.286,12.476C18.286,10.899 19.566,9.619 21.143,9.619C22.72,9.619 24,10.899 24,12.476C24,14.053 22.72,15.333 21.143,15.333C20.272,15.333 19.491,14.943 18.967,14.327L17.996,14.852L16.941,13.798ZM16.381,7.429C17.432,7.429 18.286,8.282 18.286,9.333C18.286,10.385 17.432,11.238 16.381,11.238C15.33,11.238 14.476,10.385 14.476,9.333C14.476,8.282 15.33,7.429 16.381,7.429ZM11.923,8.779L12.056,6.182C10.709,5.828 9.714,4.601 9.714,3.143C9.714,1.408 11.123,0 12.857,0C14.592,0 16,1.408 16,3.143C16,4.663 14.919,5.932 13.484,6.223L13.284,10.14L11.923,8.779Z"/>
    <g transform="matrix(1.12203,0,0,1.12203,-1.47125,-1.58887)">
        <path d="M1.865,4.405L19.598,22.137L21.173,20.561L3.441,2.829L1.865,4.405Z" fill="white"/>
    </g>
</svg>
