<svg width="75" height="63" viewBox="-10 -8 95 79" fill="none" xmlns="http://www.w3.org/2000/svg">
<path d="M27.3145 0.503906C30.0198 0.58252 32.5525 1.87592 34.2021 4.0332L35.2988 5.4668C37.0016 7.69344 39.6442 8.99989 42.4473 9H62C66.9706 9 71 13.0294 71 18V25.3477L66 21.1699V18C66 15.7909 64.2091 14 62 14H42.4473C38.0868 13.9999 33.9749 11.9677 31.3262 8.50391L30.2295 7.07031C29.4727 6.08079 28.2985 5.50007 27.0527 5.5H8.5C6.56704 5.50004 5 7.06703 5 9V49.5C5 51.7091 6.79087 53.5 9 53.5H32.2998L36.2998 58.5H9C4.18469 58.5 0.252643 54.7183 0.0117188 49.9629L0 49.5V9C0 4.3056 3.80561 0.500037 8.5 0.5H27.0527L27.3145 0.503906Z" fill="#D9D9D9"/>
<path fill-rule="evenodd" clip-rule="evenodd" d="M53.4667 21C54.2512 21 55.0262 21.0427 55.7889 21.125C56.5768 21.2101 57.2051 21.8001 57.3993 22.5684L58.1893 25.6914C58.359 26.3623 58.8667 26.8898 59.5106 27.1436C60.2694 27.4425 61.0011 27.7959 61.7001 28.1992C62.2999 28.5453 63.0293 28.614 63.66 28.3281L66.5946 26.9971C67.3158 26.67 68.1686 26.7934 68.7264 27.3555C69.8184 28.4558 70.7919 29.6737 71.6268 30.9883C72.0516 31.6571 71.9823 32.5167 71.5028 33.1475L69.5526 35.7119C69.1336 36.263 69.0381 36.9896 69.2411 37.6514C69.4764 38.4187 69.6572 39.21 69.7792 40.0205C69.8823 40.7055 70.2843 41.3189 70.9012 41.6338L73.7743 43.0996C74.4786 43.4592 74.9134 44.2017 74.8231 44.9873C74.6424 46.5566 74.2928 48.0747 73.7928 49.5225C73.5345 50.2705 72.8194 50.7512 72.0282 50.7695L68.7977 50.8447C68.1067 50.8608 67.4801 51.2372 67.0897 51.8076C66.6308 52.4781 66.1244 53.1137 65.5741 53.708C65.1041 54.2155 64.8754 54.9101 65.0135 55.5879L65.659 58.7529C65.817 59.5279 65.5076 60.3302 64.8368 60.749C63.5281 61.5661 62.1254 62.2462 60.6483 62.7695C59.9023 63.0338 59.0807 62.7752 58.5731 62.168L56.5008 59.6885C56.0576 59.1583 55.3726 58.904 54.6835 58.9551C54.2818 58.9849 53.8758 59 53.4667 59C53.0572 59 52.6508 58.9849 52.2489 58.9551C51.5598 58.9041 50.8747 59.1584 50.4315 59.6885L48.3583 62.168C47.8506 62.7751 47.03 63.0338 46.284 62.7695C44.8068 62.2462 43.4033 61.5661 42.0946 60.749C41.4239 60.33 41.1153 59.5278 41.2733 58.7529L41.9188 55.5879C42.0571 54.9101 41.8284 54.2155 41.3583 53.708C40.8078 53.1137 40.3007 52.4781 39.8417 51.8076C39.4511 51.2373 38.8247 50.8608 38.1336 50.8447L34.9042 50.7695C34.1129 50.7512 33.3989 50.2705 33.1405 49.5225C32.6404 48.0744 32.2909 46.556 32.1102 44.9863C32.0199 44.2006 32.4545 43.4581 33.159 43.0986L36.0311 41.6338C36.648 41.3189 37.0489 40.7054 37.1522 40.0205C37.2743 39.2101 37.4557 38.4187 37.6913 37.6514C37.8944 36.9896 37.7987 36.263 37.3797 35.7119L35.4295 33.1475C34.95 32.5167 34.8807 31.6571 35.3055 30.9883C36.1405 29.6739 37.115 28.4566 38.2069 27.3564C38.7647 26.7946 39.6166 26.6711 40.3378 26.998L43.2713 28.3281C43.9021 28.6141 44.6314 28.5452 45.2313 28.1992C45.9302 27.7959 46.662 27.4425 47.4208 27.1436C48.0649 26.8898 48.5725 26.3617 48.742 25.6904L49.5311 22.5684C49.7252 21.7999 50.3544 21.21 51.1424 21.125C51.9059 21.0427 52.6814 21 53.4667 21ZM52.9999 31C46.9247 31 41.9999 35.9249 41.9999 42C41.9999 48.0751 46.9247 53 52.9999 53C59.075 53 63.9999 48.0751 63.9999 42C63.9999 35.9249 59.075 31 52.9999 31Z" fill="#D9D9D9"/>
</svg>
