<svg id="Restore_tint" xmlns="http://www.w3.org/2000/svg" width="18" height="18" viewBox="0 0 18 18">
  <rect id="Icon_Base" width="18" height="18" fill="none"/>
  <path id="Path_4311" data-name="Path 4311" d="M582.366,473.507l.156.379.113.379.11.377.09.379.067.4.046.4.044.4v.8l-.044.4-.046.4-.067.379-.09.4-.11.379-.113.379-.156.356-.156.379-.177.335-.2.333-.2.335-.2.312-.246.312-.246.289-.243.266-.289.266-.289.246-.292.223-.289.246-.333.179-.335.2-.356.177-.356.179-.356.133-.379.133-.379.113-.379.09-.379.067-.379.044-.4.046h-.845l-.425-.046-.423-.067-.423-.067-.4-.11-.423-.136-.4-.133-.4-.2-.4-.179-.379-.243-.356-.223-.335-.269-.333-.266-.335-.289-.289-.312-.289-.335-.044-.11-.023-.133.023-.113.067-.09,1.4-1.447.11-.067.156-.023.067.023.067.021.09.067.179.246.223.223.2.223.246.2.223.179.246.156.266.179.246.133.266.133.312.11.266.09.292.067.266.067.312.046.312.023h.289l.535-.023.512-.09.512-.11.489-.2.469-.223.423-.266.4-.312.379-.335.333-.377.312-.4.246-.446.223-.469.2-.489.133-.535.069-.512.021-.535-.021-.558-.069-.489-.133-.535-.2-.489-.223-.469-.246-.446-.312-.4-.333-.379-.379-.333-.4-.312-.423-.266-.469-.223-.489-.2-.512-.11-.512-.09-.535-.023-.492.023-.489.067-.469.09-.489.179-.446.2-.425.266-.4.269-.379.31,1.426,1.449.11.156.09.2v.156l-.023.113-.044.11-.023.067-.067.113-.067.067-.067.067-.179.09h-4.924l-.11-.046-.113-.067-.11-.087-.09-.113-.044-.09-.046-.133v-4.812l.023-.179.067-.179.133-.133.179-.11.09-.046.087-.023h.2l.156.09.177.133,1.316,1.339.31-.246.269-.269.312-.223.289-.2.312-.2.356-.179.333-.156.335-.177.356-.113.356-.133.356-.113.379-.044.358-.067.379-.067.356-.023h.779l.4.046.379.044.379.067.379.09.379.11.379.135.356.133.356.177.356.179.335.2.333.2.289.223.292.223.289.243.289.269.243.266.246.289.246.312.2.312.2.312.2.356.177.335Zm-5.926.11V478.3l-.023.133-.09.11-.044.046-.067.021-.113.023h-3.3l-.133-.023-.09-.067-.087-.11-.023-.133v-.691l.023-.113.087-.11.09-.067.133-.023h2.3v-3.677l.021-.133.067-.11.113-.046.133-.023h.668l.113.023.11.046.046.044.044.067Z" transform="translate(-566 -468)" fill="#fff" fill-rule="evenodd"/>
</svg>
