<svg xmlns="http://www.w3.org/2000/svg" width="16.266" height="16.875" viewBox="0 0 16.266 16.875">
  <g id="Skeleton" transform="translate(-17369.598 6948.598)">
    <path id="Union_19" data-name="Union 19" d="M-1.526,68.391A2.5,2.5,0,0,1,.234,64.93l-2.1-5.478,3.717-.391L.923,64.88a2.5,2.5,0,1,1-2.449,3.511ZM3.4,64.144,13.266,61.8,4.921,67.558ZM-3,55.5A2.5,2.5,0,0,1-.5,53,2.5,2.5,0,0,1,2,55.5,2.5,2.5,0,0,1-.5,58,2.5,2.5,0,0,1-3,55.5Z" transform="translate(17372.598 -7001.598)" fill="#ccc"/>
  </g>
</svg>
