<svg xmlns="http://www.w3.org/2000/svg" width="40" height="40" viewBox="0 0 40 40">
  <g id="Meshes" transform="translate(-15165.899 7301.041)">
    <g id="Group_2422" data-name="Group 2422" transform="translate(15196.138 -7299.231)">
      <line id="Line_501" data-name="Line 501" x2="8.152" fill="none" stroke="#ccc" stroke-linecap="round" stroke-width="2"/>
      <line id="Line_502" data-name="Line 502" y1="8.152" transform="translate(8.152)" fill="none" stroke="#ccc" stroke-linecap="round" stroke-width="2"/>
    </g>
    <g id="Group_2421" data-name="Group 2421" transform="translate(15175.935 -7262.725) rotate(180)">
      <line id="Line_501-2" data-name="Line 501" x2="8.152" fill="none" stroke="#ccc" stroke-linecap="round" stroke-width="2"/>
      <line id="Line_502-2" data-name="Line 502" y1="8.152" transform="translate(8.152)" fill="none" stroke="#ccc" stroke-linecap="round" stroke-width="2"/>
    </g>
    <g id="Group_2423" data-name="Group 2423" transform="translate(15204.289 -7270.877) rotate(90)">
      <line id="Line_501-3" data-name="Line 501" x2="8.152" fill="none" stroke="#ccc" stroke-linecap="round" stroke-width="2"/>
      <line id="Line_502-3" data-name="Line 502" y1="8.152" transform="translate(8.152)" fill="none" stroke="#ccc" stroke-linecap="round" stroke-width="2"/>
    </g>
    <g id="Group_2419" data-name="Group 2419" transform="translate(15167.782 -7291.08) rotate(-90)">
      <line id="Line_501-4" data-name="Line 501" x2="8.152" fill="none" stroke="#ccc" stroke-linecap="round" stroke-width="2"/>
      <line id="Line_502-4" data-name="Line 502" y1="8.152" transform="translate(8.152)" fill="none" stroke="#ccc" stroke-linecap="round" stroke-width="2"/>
    </g>
    <g id="Group_2420" data-name="Group 2420" transform="translate(15175.661 -7291.914)">
      <g id="Path_2202" data-name="Path 2202" transform="translate(0.022 4.049)" fill="#324043">
        <path d="M 10.17809104919434 16.79317665100098 L 0.6835920810699463 12.35218524932861 L 0.6835920810699463 1.29781174659729 L 10.17813110351562 -3.296496629714966 L 19.79347229003906 1.299485802650452 L 19.79347229003906 12.35052967071533 L 10.17809104919434 16.79317665100098 Z" stroke="none"/>
        <path d="M 10.1794605255127 -2.741687774658203 L 1.183591842651367 1.611318588256836 L 1.183591842651367 12.03405570983887 L 10.1793909072876 16.24178314208984 L 19.29347229003906 12.03075408935547 L 19.29347229003906 1.614666938781738 L 10.1794605255127 -2.741687774658203 M 10.17680168151855 -3.851320266723633 L 20.29347229003906 0.9842901229858398 L 20.29347229003906 12.67030048370361 L 10.17680168151855 17.34456062316895 L 0.1835918426513672 12.67030048370361 L 0.1835918426513672 0.9842901229858398 L 10.17680168151855 -3.851320266723633 Z" stroke="none" fill="#b86f1a"/>
      </g>
      <g id="Group_842" data-name="Group 842">
        <g id="Path_2199" data-name="Path 2199" transform="translate(0 4.863)" fill="#54666a">
          <path d="M 9.737361907958984 16.09381294250488 L 0.500002384185791 11.72427272796631 L 0.500002384185791 0.789630115032196 L 9.737361907958984 5.159171104431152 L 9.737361907958984 16.09381294250488 Z" stroke="none"/>
          <path d="M 1.000002861022949 1.579268455505371 L 1.000002861022949 11.40766334533691 L 9.237361907958984 15.30417537689209 L 9.237361907958984 5.475780487060547 L 1.000002861022949 1.579268455505371 M 2.86102294921875e-06 1.9073486328125e-06 L 10.23736190795898 4.842572212219238 L 10.23736190795898 16.88344192504883 L 2.86102294921875e-06 12.04087257385254 L 2.86102294921875e-06 1.9073486328125e-06 Z" stroke="none" fill="#7a4a12"/>
        </g>
        <g id="Path_2200" data-name="Path 2200" transform="translate(10.237 4.863)" fill="#839499">
          <path d="M 0.500002384185791 16.09381294250488 L 0.500002384185791 5.159171104431152 L 9.737361907958984 0.789630115032196 L 9.737361907958984 11.72427272796631 L 0.500002384185791 16.09381294250488 Z" stroke="none"/>
          <path d="M 9.237361907958984 1.579268455505371 L 1.000002861022949 5.475780487060547 L 1.000002861022949 15.30417537689209 L 9.237361907958984 11.40766334533691 L 9.237361907958984 1.579268455505371 M 10.23736190795898 1.9073486328125e-06 L 10.23736190795898 12.04087257385254 L 2.86102294921875e-06 16.88344192504883 L 2.86102294921875e-06 4.842572212219238 L 10.23736190795898 1.9073486328125e-06 Z" stroke="none" fill="#b86f1a"/>
        </g>
        <g id="Path_2201" data-name="Path 2201" transform="translate(15.304 -10.437)" fill="#b1bdc2">
          <path d="M -5.066333293914795 19.58936309814453 L -14.13643836975098 15.29846477508545 L -5.066322326660156 10.99023151397705 L 4.005306243896484 15.29845905303955 L -5.066333293914795 19.58936309814453 Z" stroke="none"/>
          <path d="M -5.066310405731201 11.54376029968262 L -12.96915626525879 15.29755020141602 L -5.066310882568359 19.03623962402344 L 2.837862014770508 15.29755020141602 L -5.066310405731201 11.54376029968262 M -5.06634521484375 10.43670272827148 L 5.172744750976562 15.29937171936035 L -5.06634521484375 20.14248275756836 L -15.30371475219727 15.29937171936035 L -5.06634521484375 10.43670272827148 Z" stroke="none" fill="#e38a24"/>
        </g>
      </g>
    </g>
    <rect id="Rectangle_1076" data-name="Rectangle 1076" width="40" height="40" transform="translate(15165.899 -7301.041)" fill="none"/>
    <path id="Path_5932" data-name="Path 5932" d="M5.14,2.431l.045.055.033.056.022.055v.134l-.022.055-.033.056L5.14,2.9,5.1,2.942l-.055.033-.066.011L4.918,3H.333L.267,2.986.212,2.975.156,2.942.111,2.9.067,2.842.033,2.786.011,2.731,0,2.664.011,2.6l.022-.055.034-.056.043-.055L2.4.111,2.443.066,2.5.033,2.564.011,2.632,0l.055.011.066.022.056.033.045.045L5.14,2.431Z" transform="translate(15203.289 -7267.43) rotate(135)" fill="#c6c6c6" fill-rule="evenodd"/>
  </g>
</svg>
