<?xml version="1.0" encoding="UTF-8" standalone="no"?>
<svg
   xmlns:dc="http://purl.org/dc/elements/1.1/"
   xmlns:cc="http://creativecommons.org/ns#"
   xmlns:rdf="http://www.w3.org/1999/02/22-rdf-syntax-ns#"
   xmlns:svg="http://www.w3.org/2000/svg"
   xmlns="http://www.w3.org/2000/svg"
   xmlns:sodipodi="http://sodipodi.sourceforge.net/DTD/sodipodi-0.dtd"
   xmlns:inkscape="http://www.inkscape.org/namespaces/inkscape"
   inkscape:version="1.0 (4035a4fb49, 2020-05-01)"
   sodipodi:docname="cross.svg"
   id="svg4"
   version="1.1"
   viewBox="0 0 358.15311 358.15311"
   height="358.15311"
   width="358.15311">
  <metadata
     id="metadata10">
    <rdf:RDF>
      <cc:Work
         rdf:about="">
        <dc:format>image/svg+xml</dc:format>
        <dc:type
           rdf:resource="http://purl.org/dc/dcmitype/StillImage" />
        <dc:title></dc:title>
      </cc:Work>
    </rdf:RDF>
  </metadata>
  <defs
     id="defs8" />
  <sodipodi:namedview
     inkscape:current-layer="svg4"
     inkscape:window-maximized="1"
     inkscape:window-y="-8"
     inkscape:window-x="1912"
     inkscape:cy="179.07656"
     inkscape:cx="179.07656"
     inkscape:zoom="1.4355469"
     fit-margin-bottom="0"
     fit-margin-right="0"
     fit-margin-left="0"
     fit-margin-top="0"
     showgrid="false"
     id="namedview6"
     inkscape:window-height="1137"
     inkscape:window-width="1920"
     inkscape:pageshadow="2"
     inkscape:pageopacity="0"
     guidetolerance="10"
     gridtolerance="10"
     objecttolerance="10"
     borderopacity="1"
     bordercolor="#666666"
     pagecolor="#ffffff" />
  <path
     style="fill:#fffeff;fill-opacity:1"
     id="path2"
     d="M 348.78219,280.89994 246.95881,179.07656 348.78219,77.25318 c 12.49457,-12.49457 12.49457,-32.76025 0,-45.25483 L 326.15477,9.3709328 c -12.49458,-12.494577 -32.76026,-12.494577 -45.25483,0 L 179.07656,111.19431 77.25318,9.3709328 c -12.49457,-12.494577 -32.760254,-12.494577 -45.25483,0 L 9.3709328,31.99835 c -12.494577,12.49458 -12.494577,32.76026 0,45.25483 L 111.19431,179.07656 9.3709328,280.89994 c -12.494577,12.49457 -12.494577,32.76025 0,45.25483 L 31.99835,348.78219 c 12.494576,12.49457 32.76026,12.49457 45.25483,0 L 179.07656,246.95881 280.89994,348.78219 c 12.49457,12.49457 32.76025,12.49457 45.25483,0 l 22.62742,-22.62742 c 12.49457,-12.49458 12.49457,-32.76026 0,-45.25483 z"
     fill="#ffffff" />
</svg>
