<?xml version="1.0" encoding="UTF-8" standalone="no"?>
<svg
   xmlns:dc="http://purl.org/dc/elements/1.1/"
   xmlns:cc="http://creativecommons.org/ns#"
   xmlns:rdf="http://www.w3.org/1999/02/22-rdf-syntax-ns#"
   xmlns:svg="http://www.w3.org/2000/svg"
   xmlns="http://www.w3.org/2000/svg"
   xmlns:sodipodi="http://sodipodi.sourceforge.net/DTD/sodipodi-0.dtd"
   xmlns:inkscape="http://www.inkscape.org/namespaces/inkscape"
   inkscape:version="1.0 (4035a4fb49, 2020-05-01)"
   sodipodi:docname="refresh.svg"
   version="1.1"
   width="32"
   viewBox="0 0 32 32"
   id="refresh"
   height="32">
  <metadata
     id="metadata849">
    <rdf:RDF>
      <cc:Work
         rdf:about="">
        <dc:format>image/svg+xml</dc:format>
        <dc:type
           rdf:resource="http://purl.org/dc/dcmitype/StillImage" />
        <dc:title></dc:title>
      </cc:Work>
    </rdf:RDF>
  </metadata>
  <defs
     id="defs847" />
  <sodipodi:namedview
     inkscape:current-layer="refresh"
     inkscape:window-maximized="1"
     inkscape:window-y="-8"
     inkscape:window-x="-8"
     inkscape:cy="16"
     inkscape:cx="16"
     inkscape:zoom="28.28125"
     showgrid="false"
     id="namedview845"
     inkscape:window-height="1137"
     inkscape:window-width="1920"
     inkscape:pageshadow="2"
     inkscape:pageopacity="0"
     guidetolerance="10"
     gridtolerance="10"
     objecttolerance="10"
     borderopacity="1"
     bordercolor="#666666"
     pagecolor="#ffffff" />
  <path
     style="fill:#fffffd;fill-opacity:1"
     id="path842"
     d=" M16 2 A14 14 0 0 0 2 16 A14 14 0 0 0 16 30 A14 14 0 0 0 26 26 L 23.25 23 A10 10 0 0 1 16 26 A10 10 0 0 1 6 16 A10 10 0 0 1 16 6 A10 10 0 0 1 23.25 9 L19 13 L30 13 L30 2 L26 6 A14 14 0 0 0 16 2 " />
</svg>
