<svg width="200" height="40" viewBox="0 0 200 40" fill="none" xmlns="http://www.w3.org/2000/svg">
<path d="M22.4846 12.7333V9.46667C22.7874 9.43333 23.1237 9.43333 23.4601 9.43333C32.441 9.16667 38.3274 17.0667 38.3274 17.0667C38.3274 17.0667 31.9701 25.8333 25.1419 25.8333C24.1665 25.8333 23.2919 25.6667 22.4846 25.4V15.5667C25.9828 16 26.6892 17.5 28.7747 21L33.4501 17.1C33.4501 17.1 30.0529 12.6667 24.301 12.6667C23.6619 12.6333 23.0901 12.6667 22.4846 12.7333ZM22.4846 2V6.86667C22.821 6.83333 23.1237 6.83333 23.4601 6.8C35.9392 6.36667 44.0793 16.9333 44.0793 16.9333C44.0793 16.9333 34.7283 28.2 25.0074 28.2C24.0992 28.2 23.2919 28.1333 22.4846 27.9667V30.9667C23.1574 31.0667 23.8637 31.1 24.5701 31.1C33.6183 31.1 40.1774 26.5333 46.5011 21.1C47.5438 21.9333 51.8493 23.9667 52.7575 24.8667C46.7366 29.8667 32.6765 33.9 24.7046 33.9C23.931 33.9 23.191 33.8667 22.4846 33.8V38H56.8948V2H22.4846ZM22.4846 25.4V27.9667C14.1091 26.5 11.7882 17.8667 11.7882 17.8667C11.7882 17.8667 15.8246 13.4667 22.4846 12.7333V15.5333C18.9864 15.1 16.2282 18.3667 16.2282 18.3667C16.2282 18.3667 17.7755 23.8333 22.4846 25.4ZM7.6173 17.5C7.6173 17.5 12.5955 10.2333 22.4846 9.5V6.86667C11.5191 7.73333 2 16.9333 2 16.9333C2 16.9333 7.38184 32.3667 22.4846 33.7667V30.9667C11.4182 29.6 7.6173 17.5 7.6173 17.5Z" fill="#76B900"/>
<path d="M118.921 8.79994V32.4333H125.648V8.79994H118.921ZM65.9094 8.7666V32.4333H72.704V14.4666H77.9513C79.7004 14.4666 80.9449 14.8999 81.7859 15.7999C82.8622 16.9333 83.2995 18.7333 83.2995 22.0666V32.4666H89.8923V19.3999C89.8923 10.0666 83.905 8.79994 78.0186 8.79994H65.9094V8.7666ZM129.752 8.79994V32.4333H140.683C146.503 32.4333 148.42 31.4666 150.472 29.3333C151.918 27.8333 152.86 24.4999 152.86 20.8999C152.86 17.5666 152.053 14.5999 150.673 12.7666C148.184 9.4666 144.585 8.83327 139.203 8.83327H129.752V8.79994ZM136.445 13.9333H139.338C143.542 13.9333 146.267 15.7999 146.267 20.6666C146.267 25.5333 143.542 27.3999 139.338 27.3999H136.445V13.9333ZM109.2 8.79994L103.582 27.5333L98.2005 8.79994H90.935L98.6377 32.4333H108.359L116.095 8.79994H109.2V8.79994ZM155.988 32.4333H162.715V8.79994H155.988V32.4333ZM174.858 8.79994L165.44 32.3999H172.066L173.546 28.2333H184.68L186.093 32.3999H193.291L183.805 8.79994H174.858ZM179.231 13.1333L183.301 24.1666H175.026L179.231 13.1333Z" fill="white"/>
<path d="M196.352 33.5001C195.444 33.5001 194.704 32.7667 194.704 31.8667C194.704 30.9667 195.444 30.2334 196.352 30.2334C197.26 30.2334 198 30.9667 198 31.8667C198 32.7334 197.26 33.5001 196.352 33.5001ZM196.352 30.5001C195.612 30.5001 195.04 31.0667 195.04 31.8334C195.04 32.6001 195.612 33.1667 196.352 33.1667C197.092 33.1667 197.664 32.6001 197.664 31.8334C197.664 31.0667 197.092 30.5001 196.352 30.5001ZM196.655 32.7001L196.318 32.0334H196.116V32.7001H195.746V30.9334H196.453C196.823 30.9334 197.025 31.2001 197.025 31.5001C197.025 31.7334 196.856 31.9001 196.688 31.9667L197.058 32.7001H196.655V32.7001ZM196.419 31.2667H196.15V31.7334H196.419C196.554 31.7334 196.655 31.6334 196.655 31.5001C196.655 31.4001 196.554 31.2667 196.419 31.2667Z" fill="white"/>
</svg>
