<svg width="128" height="24" viewBox="0 0 128 24" fill="none" xmlns="http://www.w3.org/2000/svg">
<path d="M13.6564 7.15556V4.97778C13.8582 4.95555 14.0825 4.95555 14.3067 4.95555C20.294 4.77778 24.2183 10.0444 24.2183 10.0444C24.2183 10.0444 19.9801 15.8889 15.4279 15.8889C14.7776 15.8889 14.1946 15.7778 13.6564 15.6V9.04444C15.9886 9.33333 16.4595 10.3333 17.8498 12.6667L20.9668 10.0667C20.9668 10.0667 18.7019 7.11111 14.8673 7.11111C14.4413 7.08889 14.0601 7.11111 13.6564 7.15556ZM13.6564 0V3.24444C13.8807 3.22222 14.0825 3.22222 14.3067 3.2C22.6262 2.91111 28.0529 9.95555 28.0529 9.95555C28.0529 9.95555 21.8189 17.4667 15.3383 17.4667C14.7328 17.4667 14.1946 17.4222 13.6564 17.3111V19.3111C14.1049 19.3778 14.5758 19.4 15.0467 19.4C21.0789 19.4 25.4516 16.3556 29.6674 12.7333C30.3626 13.2889 33.2329 14.6444 33.8383 15.2444C29.8244 18.5778 20.451 21.2667 15.1364 21.2667C14.6207 21.2667 14.1273 21.2444 13.6564 21.2V24H36.5965V0H13.6564ZM13.6564 15.6V17.3111C8.07276 16.3333 6.52548 10.5778 6.52548 10.5778C6.52548 10.5778 9.21641 7.64444 13.6564 7.15556V9.02222C11.3243 8.73333 9.4855 10.9111 9.4855 10.9111C9.4855 10.9111 10.517 14.5556 13.6564 15.6ZM3.74487 10.3333C3.74487 10.3333 7.06367 5.48889 13.6564 5V3.24444C6.34609 3.82222 0 9.95555 0 9.95555C0 9.95555 3.5879 20.2444 13.6564 21.1778V19.3111C6.27882 18.4 3.74487 10.3333 3.74487 10.3333Z" fill="#76B900"/>
<path d="M77.9472 4.53296V20.2885H82.4321V4.53296H77.9472ZM42.6064 4.51074V20.2885H47.1362V8.31074H50.6344C51.8004 8.31074 52.6301 8.59963 53.1907 9.19963C53.9083 9.95519 54.1998 11.1552 54.1998 13.3774V20.3107H58.595V11.5996C58.595 5.37741 54.6035 4.53296 50.6792 4.53296H42.6064V4.51074ZM85.1678 4.53296V20.2885H92.4558C96.3352 20.2885 97.6134 19.6441 98.9812 18.2219C99.9455 17.2219 100.573 14.9996 100.573 12.5996C100.573 10.3774 100.035 8.39963 99.1158 7.17741C97.4564 4.97741 95.057 4.55519 91.4691 4.55519H85.1678V4.53296ZM89.6303 7.95519H91.5588C94.3618 7.95519 96.1782 9.19963 96.1782 12.4441C96.1782 15.6885 94.3618 16.933 91.5588 16.933H89.6303V7.95519ZM71.4666 4.53296L67.7217 17.0219L64.1338 4.53296H59.2902L64.4253 20.2885H70.906L76.0636 4.53296H71.4666ZM102.659 20.2885H107.144V4.53296H102.659V20.2885ZM115.239 4.53296L108.96 20.2663H113.378L114.364 17.4885H121.787L122.729 20.2663H127.527L121.204 4.53296H115.239ZM118.154 7.42185L120.867 14.7774H115.351L118.154 7.42185Z" fill="white"/>
</svg>
